%
M48
M72
T01C0.0150
T02C0.0400
T03C0.1300
%
T01
X7985Y4285
X9865Y4465
X10675Y5975
X11575Y5975
X12875Y6375
X13210Y5375
X14710Y5375
X15405Y6855
X13875Y7375
X12875Y7375
X13375Y8375
X14375Y8375
X15375Y8375
X15375Y9375
X14575Y9375
X12375Y9375
X12375Y10375
X11375Y10375
X11375Y9375
X10375Y9375
X10375Y10375
X9375Y10375
X9375Y9375
X8375Y8375
X7875Y7375
X8875Y7375
X8875Y6375
X7875Y6375
X6875Y6375
X6875Y7875
X6875Y8875
X6875Y9875
X5875Y9875
X5875Y8875
X4545Y9795
X4345Y10515
X3375Y10875
X5435Y10735
X5975Y11975
X5175Y12375
X5175Y13375
X5975Y14075
X6125Y14875
X6875Y14375
X6875Y13375
X6875Y12375
X8375Y13375
X7875Y14375
X8875Y14375
X8875Y15375
X9375Y15375
X9375Y16375
X8875Y16375
X7875Y16375
X7875Y15375
X6875Y15375
X5775Y15875
X5775Y16475
X6875Y16375
X9875Y16875
X10875Y17375
X12875Y16375
X12875Y15375
X13875Y15375
X13875Y14375
X12875Y14375
X13375Y13375
X12375Y12375
X11375Y12375
X10375Y12375
X9375Y12375
X9375Y11375
X10375Y11375
X11375Y11375
X12375Y11375
X14875Y12375
X15875Y12375
X16975Y12975
X17475Y12225
X19575Y10875
X20545Y10515
X21635Y10735
X22075Y9875
X22075Y8875
X23075Y8875
X23075Y9875
X24575Y8375
X24075Y7375
X23075Y7875
X23075Y6375
X24075Y6375
X25075Y6375
X25075Y7375
X26875Y5975
X27775Y5975
X29075Y6375
X29410Y5375
X30910Y5375
X31605Y6855
X30075Y7375
X29075Y7375
X29575Y8375
X30575Y8375
X31575Y8375
X31575Y9375
X30775Y9375
X28575Y9375
X28575Y10375
X27575Y10375
X27575Y9375
X26575Y9375
X26575Y10375
X26575Y11375
X27575Y11375
X28575Y11375
X28575Y12375
X27575Y12375
X26575Y12375
X25575Y12375
X25575Y11375
X25575Y10375
X25575Y9375
X22175Y11975
X21375Y12375
X21375Y13375
X22175Y14075
X22325Y14875
X23075Y14375
X23075Y13375
X24075Y14375
X24575Y13375
X25075Y14375
X25075Y15375
X25575Y15375
X25575Y16375
X25075Y16375
X26075Y16875
X27075Y17375
X29075Y16375
X29075Y15375
X30075Y15375
X30075Y14375
X29075Y14375
X29575Y13375
X31075Y13375
X31075Y14375
X31075Y12375
X32075Y12375
X33175Y12975
X33675Y12225
X35775Y10875
X34575Y10375
X33575Y9875
X34175Y8975
X36945Y9795
X36745Y10515
X37835Y10735
X38275Y9875
X38275Y8875
X39275Y8875
X39275Y9875
X40775Y8375
X40275Y7375
X39275Y7875
X39275Y6375
X40275Y6375
X41275Y6375
X41275Y7375
X43075Y5975
X43975Y5975
X45275Y6375
X45610Y5375
X47110Y5375
X47805Y6855
X46275Y7375
X45275Y7375
X45775Y8375
X46775Y8375
X47775Y8375
X47775Y9375
X46975Y9375
X44775Y9375
X44775Y10375
X43775Y10375
X43775Y9375
X42775Y9375
X42775Y10375
X41775Y10375
X41775Y9375
X41775Y11375
X42775Y11375
X42775Y12375
X41775Y12375
X40775Y13375
X40275Y14375
X39275Y14375
X38525Y14875
X38375Y14075
X37575Y13375
X37575Y12375
X38375Y11975
X39275Y12375
X39275Y13375
X39275Y15375
X40275Y15375
X40275Y16375
X39275Y16375
X38175Y16475
X38175Y15875
X41275Y15375
X41775Y15375
X41775Y16375
X41275Y16375
X42275Y16875
X43275Y17375
X45275Y16375
X45275Y15375
X46275Y15375
X46275Y14375
X45275Y14375
X45775Y13375
X44775Y12375
X43775Y12375
X43775Y11375
X44775Y11375
X47275Y12375
X47275Y13375
X47275Y14375
X48275Y12375
X49375Y12975
X49875Y12225
X51975Y10875
X50775Y10375
X49775Y9875
X50375Y8975
X53145Y9795
X52945Y10515
X54035Y10735
X54475Y9875
X54475Y8875
X55475Y8875
X55475Y9875
X56975Y8375
X56475Y7375
X57475Y7375
X57475Y6375
X56475Y6375
X55475Y6375
X55475Y7875
X57975Y9375
X57975Y10375
X58975Y10375
X58975Y9375
X59975Y9375
X59975Y10375
X60975Y10375
X60975Y9375
X61975Y8375
X62975Y8375
X63975Y8375
X63975Y9375
X63175Y9375
X65975Y9875
X66575Y8975
X66975Y10375
X66075Y12225
X65575Y12975
X64475Y12375
X63475Y12375
X63475Y13375
X63475Y14375
X62475Y14375
X61475Y14375
X61975Y13375
X60975Y12375
X59975Y12375
X59975Y11375
X60975Y11375
X58975Y11375
X57975Y11375
X57975Y12375
X58975Y12375
X56975Y13375
X56475Y14375
X55475Y14375
X54725Y14875
X54575Y14075
X53775Y13375
X53775Y12375
X54575Y11975
X55475Y12375
X55475Y13375
X57475Y14375
X57475Y15375
X57975Y15375
X57975Y16375
X57475Y16375
X56475Y16375
X55475Y16375
X55475Y15375
X56475Y15375
X54375Y15875
X54375Y16475
X50775Y16875
X49775Y16875
X48775Y17875
X50775Y15375
X56585Y20485
X58465Y20665
X59275Y22175
X60175Y22175
X61475Y22575
X61810Y21575
X63310Y21575
X64005Y23055
X62475Y23575
X61475Y23575
X61975Y24575
X62975Y24575
X63175Y25575
X63975Y25575
X63975Y24575
X65975Y26075
X66575Y25175
X66975Y26575
X66075Y28425
X65575Y29175
X64475Y28575
X63475Y28575
X63475Y29575
X63475Y30575
X62475Y30575
X61475Y30575
X61475Y31575
X62475Y31575
X61475Y32575
X59475Y33575
X58475Y33075
X57975Y32575
X57475Y32575
X56475Y32575
X55475Y32575
X55475Y31575
X54725Y31075
X54575Y30275
X55475Y30575
X56475Y30575
X57475Y30575
X57475Y31575
X57975Y31575
X56475Y31575
X54375Y32075
X54375Y32675
X50775Y33075
X49775Y33075
X48775Y34075
X50775Y31575
X49375Y29175
X48275Y28575
X47275Y28575
X47275Y29575
X47275Y30575
X46275Y30575
X45275Y30575
X45275Y31575
X46275Y31575
X45275Y32575
X43275Y33575
X42275Y33075
X41775Y32575
X41275Y32575
X41275Y31575
X41775Y31575
X41275Y30575
X40275Y30575
X39275Y30575
X38525Y31075
X38375Y30275
X37575Y29575
X37575Y28575
X38375Y28175
X39275Y28575
X39275Y29575
X40775Y29575
X41775Y28575
X42775Y28575
X42775Y27575
X41775Y27575
X41775Y26575
X42775Y26575
X42775Y25575
X41775Y25575
X40775Y24575
X40275Y23575
X39275Y24075
X39275Y25075
X39275Y26075
X38275Y26075
X38275Y25075
X36945Y25995
X36745Y26715
X37835Y26935
X35775Y27075
X34575Y26575
X33575Y26075
X34175Y25175
X31575Y25575
X30775Y25575
X30575Y24575
X29575Y24575
X29075Y23575
X30075Y23575
X29075Y22575
X29410Y21575
X30910Y21575
X31605Y23055
X31575Y24575
X28575Y25575
X27575Y25575
X26575Y25575
X26575Y26575
X27575Y26575
X28575Y26575
X28575Y27575
X27575Y27575
X26575Y27575
X26575Y28575
X27575Y28575
X28575Y28575
X29575Y29575
X31075Y29575
X31075Y28575
X32075Y28575
X33175Y29175
X33675Y28425
X31075Y30575
X30075Y30575
X29075Y30575
X29075Y31575
X30075Y31575
X29075Y32575
X27075Y33575
X26075Y33075
X25575Y32575
X25075Y32575
X25075Y31575
X25575Y31575
X25075Y30575
X24075Y30575
X23075Y30575
X22325Y31075
X22175Y30275
X21375Y29575
X21375Y28575
X22175Y28175
X23075Y28575
X23075Y29575
X24575Y29575
X25575Y28575
X25575Y27575
X25575Y26575
X25575Y25575
X24575Y24575
X24075Y23575
X23075Y24075
X23075Y25075
X23075Y26075
X22075Y26075
X22075Y25075
X20745Y25995
X20545Y26715
X19575Y27075
X18375Y26575
X17375Y26075
X17975Y25175
X15375Y25575
X14575Y25575
X14375Y24575
X13375Y24575
X12875Y23575
X13875Y23575
X12875Y22575
X13210Y21575
X14710Y21575
X15405Y23055
X15375Y24575
X12375Y25575
X11375Y25575
X10375Y25575
X9375Y25575
X9375Y26575
X10375Y26575
X11375Y26575
X12375Y26575
X12375Y27575
X11375Y27575
X10375Y27575
X9375Y27575
X9375Y28575
X10375Y28575
X11375Y28575
X12375Y28575
X13375Y29575
X12875Y30575
X13875Y30575
X13875Y31575
X12875Y31575
X12875Y32575
X10875Y33575
X9875Y33075
X9375Y32575
X8875Y32575
X7875Y32575
X7875Y31575
X8875Y31575
X9375Y31575
X8875Y30575
X7875Y30575
X6875Y30575
X6125Y31075
X5975Y30275
X5175Y29575
X5175Y28575
X5975Y28175
X6875Y28575
X6875Y29575
X8375Y29575
X6875Y31575
X5775Y32075
X5775Y32675
X6875Y32575
X7985Y36685
X9865Y36865
X10675Y38375
X11575Y38375
X12875Y38775
X12875Y39775
X13875Y39775
X13375Y40775
X14375Y40775
X15375Y40775
X15375Y41775
X14575Y41775
X12375Y41775
X11375Y41775
X10375Y41775
X9375Y41775
X9375Y42775
X10375Y42775
X11375Y42775
X12375Y42775
X12375Y43775
X11375Y43775
X10375Y43775
X9375Y43775
X9375Y44775
X10375Y44775
X11375Y44775
X12375Y44775
X13375Y45775
X12875Y46775
X13875Y46775
X13875Y47775
X12875Y47775
X12875Y48775
X10875Y49775
X9875Y49275
X9375Y48775
X8875Y48775
X8875Y47775
X9375Y47775
X8875Y46775
X7875Y46775
X7875Y47775
X7875Y48775
X6875Y48775
X6875Y47775
X6125Y47275
X6875Y46775
X5975Y46475
X5175Y45775
X5175Y44775
X5975Y44375
X6875Y44775
X6875Y45775
X8375Y45775
X5435Y43135
X4345Y42915
X4545Y42195
X5875Y42275
X5875Y41275
X6875Y41275
X6875Y42275
X8375Y40775
X7875Y39775
X8875Y39775
X8875Y38775
X7875Y38775
X6875Y38775
X6875Y40275
X3375Y43275
X5775Y48275
X5775Y48875
X14875Y46775
X14875Y45775
X14875Y44775
X15875Y44775
X16975Y45375
X17475Y44625
X18375Y42775
X17375Y42275
X17975Y41375
X19575Y43275
X20545Y42915
X20745Y42195
X21635Y43135
X22075Y42275
X22075Y41275
X23075Y41275
X23075Y42275
X24575Y40775
X25575Y41775
X25575Y42775
X25575Y43775
X25575Y44775
X24575Y45775
X24075Y46775
X23075Y46775
X22325Y47275
X23075Y47775
X23075Y48775
X24075Y48775
X24075Y47775
X25075Y47775
X25575Y47775
X25575Y48775
X25075Y48775
X26075Y49275
X27075Y49775
X29075Y48775
X29075Y47775
X30075Y47775
X30075Y46775
X29075Y46775
X29575Y45775
X31075Y45775
X31075Y44775
X32075Y44775
X33175Y45375
X33675Y44625
X35775Y43275
X34575Y42775
X33575Y42275
X34175Y41375
X31575Y41775
X30775Y41775
X30575Y40775
X29575Y40775
X29075Y39775
X30075Y39775
X29075Y38775
X29410Y37775
X30910Y37775
X31605Y39255
X31575Y40775
X28575Y41775
X27575Y41775
X26575Y41775
X26575Y42775
X27575Y42775
X28575Y42775
X28575Y43775
X27575Y43775
X26575Y43775
X26575Y44775
X27575Y44775
X28575Y44775
X31075Y46775
X33575Y49275
X34575Y49275
X34575Y47775
X32575Y50275
X38175Y48875
X38175Y48275
X39275Y47775
X38525Y47275
X39275Y46775
X38375Y46475
X37575Y45775
X37575Y44775
X38375Y44375
X39275Y44775
X39275Y45775
X40275Y46775
X40275Y47775
X40275Y48775
X39275Y48775
X41275Y48775
X41775Y48775
X42275Y49275
X43275Y49775
X45275Y48775
X45275Y47775
X46275Y47775
X46275Y46775
X45275Y46775
X45775Y45775
X44775Y44775
X43775Y44775
X43775Y43775
X44775Y43775
X44775Y42775
X43775Y42775
X43775Y41775
X44775Y41775
X45775Y40775
X46775Y40775
X47775Y40775
X47775Y41775
X46975Y41775
X46275Y39775
X45275Y39775
X45275Y38775
X45610Y37775
X47110Y37775
X47805Y39255
X49275Y37705
X50375Y41375
X49775Y42275
X50775Y42775
X51975Y43275
X52945Y42915
X53145Y42195
X54035Y43135
X54475Y42275
X54475Y41275
X55475Y41275
X55475Y42275
X56975Y40775
X57975Y41775
X58975Y41775
X58975Y42775
X57975Y42775
X57975Y43775
X58975Y43775
X58975Y44775
X57975Y44775
X56975Y45775
X56475Y46775
X55475Y46775
X54725Y47275
X55475Y47775
X55475Y48775
X56475Y48775
X56475Y47775
X57475Y47775
X57975Y47775
X57975Y48775
X57475Y48775
X58475Y49275
X59475Y49775
X61475Y48775
X61475Y47775
X62475Y47775
X62475Y46775
X61475Y46775
X61975Y45775
X60975Y44775
X59975Y44775
X59975Y43775
X60975Y43775
X60975Y42775
X59975Y42775
X59975Y41775
X60975Y41775
X61975Y40775
X62975Y40775
X63175Y41775
X63975Y41775
X63975Y40775
X62475Y39775
X61475Y39775
X61475Y38775
X61810Y37775
X63310Y37775
X64005Y39255
X65475Y37705
X64975Y34075
X65975Y33075
X66975Y33075
X66975Y31575
X61975Y29575
X60975Y28575
X59975Y28575
X59975Y27575
X60975Y27575
X60975Y26575
X59975Y26575
X59975Y25575
X60975Y25575
X58975Y25575
X57975Y25575
X56975Y24575
X56475Y23575
X57475Y23575
X57475Y22575
X56475Y22575
X55475Y22575
X55475Y24075
X55475Y25075
X55475Y26075
X54475Y26075
X54475Y25075
X53145Y25995
X52945Y26715
X54035Y26935
X54575Y28175
X53775Y28575
X53775Y29575
X55475Y29575
X55475Y28575
X56975Y29575
X57975Y28575
X58975Y28575
X58975Y27575
X57975Y27575
X57975Y26575
X58975Y26575
X51975Y27075
X50775Y26575
X49775Y26075
X50375Y25175
X47775Y25575
X46975Y25575
X46775Y24575
X47775Y24575
X46275Y23575
X45275Y23575
X45275Y22575
X45610Y21575
X47110Y21575
X47805Y23055
X49275Y21505
X45775Y24575
X44775Y25575
X43775Y25575
X43775Y26575
X44775Y26575
X44775Y27575
X43775Y27575
X43775Y28575
X44775Y28575
X45775Y29575
X49875Y28425
X43975Y22175
X43075Y22175
X41275Y22575
X41275Y23575
X40275Y22575
X39275Y22575
X40385Y20485
X42265Y20665
X34575Y16875
X33575Y16875
X32575Y17875
X34575Y15375
X41275Y14375
X33075Y21505
X27775Y22175
X26875Y22175
X25075Y22575
X25075Y23575
X24075Y22575
X23075Y22575
X24185Y20485
X26065Y20665
X24075Y16375
X23075Y16375
X21975Y16475
X21975Y15875
X23075Y15375
X24075Y15375
X23075Y12375
X20745Y9795
X18375Y10375
X17375Y9875
X17975Y8975
X16875Y5305
X24185Y4285
X26065Y4465
X33075Y5305
X40385Y4285
X42265Y4465
X49275Y5305
X56585Y4285
X58465Y4465
X59275Y5975
X60175Y5975
X61475Y6375
X61810Y5375
X63310Y5375
X64005Y6855
X62475Y7375
X61475Y7375
X65475Y5305
X66975Y15375
X66975Y16875
X65975Y16875
X64975Y17875
X62475Y15375
X61475Y15375
X61475Y16375
X59475Y17375
X58475Y16875
X65475Y21505
X58465Y36865
X59275Y38375
X60175Y38375
X57475Y38775
X56475Y38775
X55475Y38775
X56475Y39775
X57475Y39775
X55475Y40275
X56585Y36685
X65975Y42275
X66575Y41375
X66975Y42775
X66075Y44625
X65575Y45375
X64475Y44775
X63475Y44775
X63475Y45775
X63475Y46775
X65975Y49275
X66975Y49275
X66975Y47775
X64975Y50275
X57475Y46775
X55475Y45775
X55475Y44775
X54575Y44375
X53775Y44775
X53775Y45775
X54575Y46475
X54375Y48275
X54375Y48875
X50775Y49275
X49775Y49275
X48775Y50275
X50775Y47775
X49375Y45375
X48275Y44775
X47275Y44775
X47275Y45775
X47275Y46775
X49875Y44625
X42775Y44775
X41775Y44775
X40775Y45775
X41275Y46775
X41275Y47775
X41775Y47775
X41775Y43775
X42775Y43775
X42775Y42775
X41775Y42775
X41775Y41775
X42775Y41775
X40775Y40775
X40275Y39775
X39275Y40275
X39275Y41275
X39275Y42275
X38275Y42275
X38275Y41275
X36945Y42195
X36745Y42915
X37835Y43135
X41275Y39775
X41275Y38775
X40275Y38775
X39275Y38775
X40385Y36685
X42265Y36865
X43075Y38375
X43975Y38375
X40275Y32575
X39275Y32575
X38175Y32675
X38175Y32075
X39275Y31575
X40275Y31575
X34575Y31575
X34575Y33075
X33575Y33075
X32575Y34075
X33075Y37705
X27775Y38375
X26875Y38375
X25075Y38775
X25075Y39775
X24075Y39775
X23075Y40275
X23075Y38775
X24075Y38775
X24185Y36685
X26065Y36865
X24075Y32575
X23075Y32575
X21975Y32675
X21975Y32075
X23075Y31575
X24075Y31575
X18375Y31575
X18375Y33075
X17375Y33075
X16375Y34075
X16875Y37705
X15405Y39255
X14710Y37775
X13210Y37775
X14875Y30575
X14875Y29575
X14875Y28575
X15875Y28575
X16975Y29175
X17475Y28425
X21635Y26935
X16875Y21505
X16375Y17875
X17375Y16875
X18375Y16875
X18375Y15375
X14875Y14375
X14875Y13375
X9865Y20665
X7985Y20485
X7875Y22575
X8875Y22575
X8875Y23575
X7875Y23575
X8375Y24575
X6875Y24075
X6875Y25075
X6875Y26075
X5875Y26075
X5875Y25075
X4545Y25995
X4345Y26715
X3375Y27075
X5435Y26935
X6875Y22575
X10675Y22175
X11575Y22175
X22175Y44375
X21375Y44775
X21375Y45775
X22175Y46475
X23075Y45775
X23075Y44775
X25075Y46775
X21975Y48275
X21975Y48875
X18375Y49275
X17375Y49275
X16375Y50275
X18375Y47775
T02
X13375Y50775
X12375Y50775
X11375Y50775
X10375Y50775
X9375Y50775
X8375Y50775
X24575Y50775
X25575Y50775
X26575Y50775
X27575Y50775
X28575Y50775
X29575Y50775
X40775Y50775
X41775Y50775
X42775Y50775
X43775Y50775
X44775Y50775
X45775Y50775
X56975Y50775
X57975Y50775
X58975Y50775
X59975Y50775
X60975Y50775
X61975Y50775
X61975Y35775
X60975Y35775
X59975Y35775
X58975Y35775
X57975Y35775
X56975Y35775
X55975Y35775
X56975Y34575
X57975Y34575
X58975Y34575
X59975Y34575
X60975Y34575
X61975Y34575
X62975Y35775
X46775Y35775
X45775Y35775
X44775Y35775
X43775Y35775
X42775Y35775
X41775Y35775
X40775Y35775
X39775Y35775
X40775Y34575
X41775Y34575
X42775Y34575
X43775Y34575
X44775Y34575
X45775Y34575
X30575Y35775
X29575Y35775
X28575Y35775
X27575Y35775
X26575Y35775
X25575Y35775
X24575Y35775
X23575Y35775
X24575Y34575
X25575Y34575
X26575Y34575
X27575Y34575
X28575Y34575
X29575Y34575
X14375Y35775
X13375Y35775
X12375Y35775
X11375Y35775
X10375Y35775
X9375Y35775
X8375Y35775
X7375Y35775
X8375Y34575
X9375Y34575
X10375Y34575
X11375Y34575
X12375Y34575
X13375Y34575
X13375Y19575
X14375Y19575
X13375Y18375
X12375Y18375
X11375Y18375
X10375Y18375
X9375Y18375
X8375Y18375
X8375Y19575
X7375Y19575
X9375Y19575
X10375Y19575
X11375Y19575
X12375Y19575
X23575Y19575
X24575Y19575
X25575Y19575
X26575Y19575
X27575Y19575
X28575Y19575
X29575Y19575
X30575Y19575
X29575Y18375
X28575Y18375
X27575Y18375
X26575Y18375
X25575Y18375
X24575Y18375
X39775Y19575
X40775Y19575
X41775Y19575
X42775Y19575
X43775Y19575
X44775Y19575
X45775Y19575
X46775Y19575
X45775Y18375
X44775Y18375
X43775Y18375
X42775Y18375
X41775Y18375
X40775Y18375
X55975Y19575
X56975Y19575
X57975Y19575
X58975Y19575
X59975Y19575
X60975Y19575
X61975Y19575
X62975Y19575
X61975Y18375
X60975Y18375
X59975Y18375
X58975Y18375
X57975Y18375
X56975Y18375
X56975Y3375
X57975Y3375
X58975Y3375
X59975Y3375
X60975Y3375
X61975Y3375
X62975Y3375
X55975Y3375
X46775Y3375
X45775Y3375
X44775Y3375
X43775Y3375
X42775Y3375
X41775Y3375
X40775Y3375
X39775Y3375
X30575Y3375
X29575Y3375
X28575Y3375
X27575Y3375
X26575Y3375
X25575Y3375
X24575Y3375
X23575Y3375
X14375Y3375
X13375Y3375
X12375Y3375
X11375Y3375
X10375Y3375
X9375Y3375
X8375Y3375
X7375Y3375
T03
X3875Y3875
X17875Y3875
X20075Y3875
X34075Y3875
X36275Y3875
X50275Y3875
X52475Y3875
X66475Y3875
X66475Y17875
X66475Y20075
X52475Y20075
X50275Y20075
X50275Y17875
X52475Y17875
X36275Y17875
X34075Y17875
X34075Y20075
X36275Y20075
X20075Y20075
X17875Y20075
X17875Y17875
X20075Y17875
X3875Y17875
X3875Y20075
X3875Y34075
X3875Y36275
X17875Y36275
X20075Y36275
X20075Y34075
X17875Y34075
X34075Y34075
X36275Y34075
X36275Y36275
X34075Y36275
X50275Y36275
X52475Y36275
X52475Y34075
X50275Y34075
X66475Y34075
X66475Y36275
X66475Y50275
X52475Y50275
X50275Y50275
X36275Y50275
X34075Y50275
X20075Y50275
X17875Y50275
X3875Y50275
M30
