G75*
%MOIN*%
%OFA0B0*%
%FSLAX25Y25*%
%IPPOS*%
%LPD*%
%AMOC8*
5,1,8,0,0,1.08239X$1,22.5*
%
%ADD10C,0.13800*%
%ADD11C,0.03300*%
%ADD12C,0.08200*%
D10*
X0038750Y0038750D03*
X0178750Y0038750D03*
X0200750Y0038750D03*
X0340750Y0038750D03*
X0362750Y0038750D03*
X0502750Y0038750D03*
X0524750Y0038750D03*
X0664750Y0038750D03*
X0664750Y0178750D03*
X0664750Y0200750D03*
X0524750Y0200750D03*
X0502750Y0200750D03*
X0502750Y0178750D03*
X0524750Y0178750D03*
X0362750Y0178750D03*
X0340750Y0178750D03*
X0340750Y0200750D03*
X0362750Y0200750D03*
X0200750Y0200750D03*
X0178750Y0200750D03*
X0178750Y0178750D03*
X0200750Y0178750D03*
X0038750Y0178750D03*
X0038750Y0200750D03*
X0038750Y0340750D03*
X0038750Y0362750D03*
X0178750Y0362750D03*
X0200750Y0362750D03*
X0200750Y0340750D03*
X0178750Y0340750D03*
X0340750Y0340750D03*
X0362750Y0340750D03*
X0362750Y0362750D03*
X0340750Y0362750D03*
X0502750Y0362750D03*
X0524750Y0362750D03*
X0524750Y0340750D03*
X0502750Y0340750D03*
X0664750Y0340750D03*
X0664750Y0362750D03*
X0664750Y0502750D03*
X0524750Y0502750D03*
X0502750Y0502750D03*
X0362750Y0502750D03*
X0340750Y0502750D03*
X0200750Y0502750D03*
X0178750Y0502750D03*
X0038750Y0502750D03*
D11*
X0031250Y0510250D03*
X0193250Y0510250D03*
X0355250Y0510250D03*
X0517250Y0510250D03*
X0510250Y0355250D03*
X0517250Y0348250D03*
X0672250Y0355250D03*
X0672250Y0193250D03*
X0517250Y0186250D03*
X0510250Y0193250D03*
X0355250Y0186250D03*
X0348250Y0193250D03*
X0193250Y0186250D03*
X0186250Y0193250D03*
X0031250Y0186250D03*
X0031250Y0348250D03*
X0186250Y0355250D03*
X0193250Y0348250D03*
X0348250Y0355250D03*
X0355250Y0348250D03*
X0348250Y0031250D03*
X0186250Y0031250D03*
X0510250Y0031250D03*
X0672250Y0031250D03*
D12*
X0629750Y0033750D03*
X0619750Y0033750D03*
X0609750Y0033750D03*
X0599750Y0033750D03*
X0589750Y0033750D03*
X0579750Y0033750D03*
X0569750Y0033750D03*
X0559750Y0033750D03*
X0467750Y0033750D03*
X0457750Y0033750D03*
X0447750Y0033750D03*
X0437750Y0033750D03*
X0427750Y0033750D03*
X0417750Y0033750D03*
X0407750Y0033750D03*
X0397750Y0033750D03*
X0305750Y0033750D03*
X0295750Y0033750D03*
X0285750Y0033750D03*
X0275750Y0033750D03*
X0265750Y0033750D03*
X0255750Y0033750D03*
X0245750Y0033750D03*
X0235750Y0033750D03*
X0143750Y0033750D03*
X0133750Y0033750D03*
X0123750Y0033750D03*
X0113750Y0033750D03*
X0103750Y0033750D03*
X0093750Y0033750D03*
X0083750Y0033750D03*
X0073750Y0033750D03*
X0083750Y0183750D03*
X0093750Y0183750D03*
X0103750Y0183750D03*
X0113750Y0183750D03*
X0123750Y0183750D03*
X0133750Y0183750D03*
X0133750Y0195750D03*
X0143750Y0195750D03*
X0123750Y0195750D03*
X0113750Y0195750D03*
X0103750Y0195750D03*
X0093750Y0195750D03*
X0083750Y0195750D03*
X0073750Y0195750D03*
X0235750Y0195750D03*
X0245750Y0195750D03*
X0255750Y0195750D03*
X0265750Y0195750D03*
X0275750Y0195750D03*
X0285750Y0195750D03*
X0295750Y0195750D03*
X0305750Y0195750D03*
X0295750Y0183750D03*
X0285750Y0183750D03*
X0275750Y0183750D03*
X0265750Y0183750D03*
X0255750Y0183750D03*
X0245750Y0183750D03*
X0397750Y0195750D03*
X0407750Y0195750D03*
X0417750Y0195750D03*
X0427750Y0195750D03*
X0437750Y0195750D03*
X0447750Y0195750D03*
X0457750Y0195750D03*
X0467750Y0195750D03*
X0457750Y0183750D03*
X0447750Y0183750D03*
X0437750Y0183750D03*
X0427750Y0183750D03*
X0417750Y0183750D03*
X0407750Y0183750D03*
X0559750Y0195750D03*
X0569750Y0195750D03*
X0579750Y0195750D03*
X0589750Y0195750D03*
X0599750Y0195750D03*
X0609750Y0195750D03*
X0619750Y0195750D03*
X0629750Y0195750D03*
X0619750Y0183750D03*
X0609750Y0183750D03*
X0599750Y0183750D03*
X0589750Y0183750D03*
X0579750Y0183750D03*
X0569750Y0183750D03*
X0569750Y0345750D03*
X0579750Y0345750D03*
X0589750Y0345750D03*
X0599750Y0345750D03*
X0609750Y0345750D03*
X0619750Y0345750D03*
X0619750Y0357750D03*
X0609750Y0357750D03*
X0599750Y0357750D03*
X0589750Y0357750D03*
X0579750Y0357750D03*
X0569750Y0357750D03*
X0559750Y0357750D03*
X0629750Y0357750D03*
X0467750Y0357750D03*
X0457750Y0357750D03*
X0447750Y0357750D03*
X0437750Y0357750D03*
X0427750Y0357750D03*
X0417750Y0357750D03*
X0407750Y0357750D03*
X0397750Y0357750D03*
X0407750Y0345750D03*
X0417750Y0345750D03*
X0427750Y0345750D03*
X0437750Y0345750D03*
X0447750Y0345750D03*
X0457750Y0345750D03*
X0305750Y0357750D03*
X0295750Y0357750D03*
X0285750Y0357750D03*
X0275750Y0357750D03*
X0265750Y0357750D03*
X0255750Y0357750D03*
X0245750Y0357750D03*
X0235750Y0357750D03*
X0245750Y0345750D03*
X0255750Y0345750D03*
X0265750Y0345750D03*
X0275750Y0345750D03*
X0285750Y0345750D03*
X0295750Y0345750D03*
X0143750Y0357750D03*
X0133750Y0357750D03*
X0123750Y0357750D03*
X0113750Y0357750D03*
X0103750Y0357750D03*
X0093750Y0357750D03*
X0083750Y0357750D03*
X0073750Y0357750D03*
X0083750Y0345750D03*
X0093750Y0345750D03*
X0103750Y0345750D03*
X0113750Y0345750D03*
X0123750Y0345750D03*
X0133750Y0345750D03*
X0133750Y0507750D03*
X0123750Y0507750D03*
X0113750Y0507750D03*
X0103750Y0507750D03*
X0093750Y0507750D03*
X0083750Y0507750D03*
X0245750Y0507750D03*
X0255750Y0507750D03*
X0265750Y0507750D03*
X0275750Y0507750D03*
X0285750Y0507750D03*
X0295750Y0507750D03*
X0407750Y0507750D03*
X0417750Y0507750D03*
X0427750Y0507750D03*
X0437750Y0507750D03*
X0447750Y0507750D03*
X0457750Y0507750D03*
X0569750Y0507750D03*
X0579750Y0507750D03*
X0589750Y0507750D03*
X0599750Y0507750D03*
X0609750Y0507750D03*
X0619750Y0507750D03*
M02*
