G75*
%MOIN*%
%OFA0B0*%
%FSLAX25Y25*%
%IPPOS*%
%LPD*%
%AMOC8*
5,1,8,0,0,1.08239X$1,22.5*
%
%ADD10C,0.13800*%
%ADD11C,0.03300*%
%ADD12R,0.08674X0.05524*%
%ADD13R,0.06115X0.03162*%
%ADD14R,0.05131X0.04737*%
%ADD15R,0.04737X0.05131*%
%ADD16C,0.00197*%
%ADD17R,0.16535X0.06693*%
%ADD18R,0.03300X0.05800*%
%ADD19C,0.00500*%
%ADD20C,0.01990*%
%ADD21R,0.04068X0.03280*%
%ADD22R,0.11627X0.07099*%
%ADD23R,0.07099X0.11627*%
%ADD24C,0.08200*%
%ADD25C,0.04737*%
%ADD26C,0.05000*%
%ADD27C,0.06706*%
D10*
X0038750Y0038750D03*
X0178750Y0038750D03*
X0200750Y0038750D03*
X0340750Y0038750D03*
X0362750Y0038750D03*
X0502750Y0038750D03*
X0524750Y0038750D03*
X0664750Y0038750D03*
X0664750Y0178750D03*
X0664750Y0200750D03*
X0524750Y0200750D03*
X0502750Y0200750D03*
X0502750Y0178750D03*
X0524750Y0178750D03*
X0362750Y0178750D03*
X0340750Y0178750D03*
X0340750Y0200750D03*
X0362750Y0200750D03*
X0200750Y0200750D03*
X0178750Y0200750D03*
X0178750Y0178750D03*
X0200750Y0178750D03*
X0038750Y0178750D03*
X0038750Y0200750D03*
X0038750Y0340750D03*
X0038750Y0362750D03*
X0178750Y0362750D03*
X0200750Y0362750D03*
X0200750Y0340750D03*
X0178750Y0340750D03*
X0340750Y0340750D03*
X0362750Y0340750D03*
X0362750Y0362750D03*
X0340750Y0362750D03*
X0502750Y0362750D03*
X0524750Y0362750D03*
X0524750Y0340750D03*
X0502750Y0340750D03*
X0664750Y0340750D03*
X0664750Y0362750D03*
X0664750Y0502750D03*
X0524750Y0502750D03*
X0502750Y0502750D03*
X0362750Y0502750D03*
X0340750Y0502750D03*
X0200750Y0502750D03*
X0178750Y0502750D03*
X0038750Y0502750D03*
D11*
X0031250Y0510250D03*
X0193250Y0510250D03*
X0355250Y0510250D03*
X0517250Y0510250D03*
X0510250Y0355250D03*
X0517250Y0348250D03*
X0672250Y0355250D03*
X0672250Y0193250D03*
X0517250Y0186250D03*
X0510250Y0193250D03*
X0355250Y0186250D03*
X0348250Y0193250D03*
X0193250Y0186250D03*
X0186250Y0193250D03*
X0031250Y0186250D03*
X0031250Y0348250D03*
X0186250Y0355250D03*
X0193250Y0348250D03*
X0348250Y0355250D03*
X0355250Y0348250D03*
X0348250Y0031250D03*
X0186250Y0031250D03*
X0510250Y0031250D03*
X0672250Y0031250D03*
D12*
X0669219Y0097726D03*
X0669219Y0119774D03*
X0520281Y0119774D03*
X0507219Y0119774D03*
X0507219Y0097726D03*
X0520281Y0097726D03*
X0358281Y0097726D03*
X0345219Y0097726D03*
X0345219Y0119774D03*
X0358281Y0119774D03*
X0196281Y0119774D03*
X0183219Y0119774D03*
X0183219Y0097726D03*
X0196281Y0097726D03*
X0034281Y0097726D03*
X0034281Y0119774D03*
X0034281Y0259726D03*
X0034281Y0281774D03*
X0183219Y0281774D03*
X0196281Y0281774D03*
X0196281Y0259726D03*
X0183219Y0259726D03*
X0345219Y0259726D03*
X0358281Y0259726D03*
X0358281Y0281774D03*
X0345219Y0281774D03*
X0507219Y0281774D03*
X0520281Y0281774D03*
X0520281Y0259726D03*
X0507219Y0259726D03*
X0669219Y0259726D03*
X0669219Y0281774D03*
X0669219Y0421726D03*
X0669219Y0443774D03*
X0520281Y0443774D03*
X0507219Y0443774D03*
X0507219Y0421726D03*
X0520281Y0421726D03*
X0358281Y0421726D03*
X0345219Y0421726D03*
X0345219Y0443774D03*
X0358281Y0443774D03*
X0196281Y0443774D03*
X0183219Y0443774D03*
X0183219Y0421726D03*
X0196281Y0421726D03*
X0034281Y0421726D03*
X0034281Y0443774D03*
D13*
X0048750Y0438656D03*
X0048750Y0434719D03*
X0048750Y0430781D03*
X0048750Y0426844D03*
X0168750Y0426844D03*
X0168750Y0430781D03*
X0168750Y0434719D03*
X0168750Y0438656D03*
X0210750Y0438656D03*
X0210750Y0434719D03*
X0210750Y0430781D03*
X0210750Y0426844D03*
X0330750Y0426844D03*
X0330750Y0430781D03*
X0330750Y0434719D03*
X0330750Y0438656D03*
X0372750Y0438656D03*
X0372750Y0434719D03*
X0372750Y0430781D03*
X0372750Y0426844D03*
X0492750Y0426844D03*
X0492750Y0430781D03*
X0492750Y0434719D03*
X0492750Y0438656D03*
X0534750Y0438656D03*
X0534750Y0434719D03*
X0534750Y0430781D03*
X0534750Y0426844D03*
X0654750Y0426844D03*
X0654750Y0430781D03*
X0654750Y0434719D03*
X0654750Y0438656D03*
X0654750Y0276656D03*
X0654750Y0272719D03*
X0654750Y0268781D03*
X0654750Y0264844D03*
X0534750Y0264844D03*
X0534750Y0268781D03*
X0534750Y0272719D03*
X0534750Y0276656D03*
X0492750Y0276656D03*
X0492750Y0272719D03*
X0492750Y0268781D03*
X0492750Y0264844D03*
X0372750Y0264844D03*
X0372750Y0268781D03*
X0372750Y0272719D03*
X0372750Y0276656D03*
X0330750Y0276656D03*
X0330750Y0272719D03*
X0330750Y0268781D03*
X0330750Y0264844D03*
X0210750Y0264844D03*
X0210750Y0268781D03*
X0210750Y0272719D03*
X0210750Y0276656D03*
X0168750Y0276656D03*
X0168750Y0272719D03*
X0168750Y0268781D03*
X0168750Y0264844D03*
X0048750Y0264844D03*
X0048750Y0268781D03*
X0048750Y0272719D03*
X0048750Y0276656D03*
X0048750Y0114656D03*
X0048750Y0110719D03*
X0048750Y0106781D03*
X0048750Y0102844D03*
X0168750Y0102844D03*
X0168750Y0106781D03*
X0168750Y0110719D03*
X0168750Y0114656D03*
X0210750Y0114656D03*
X0210750Y0110719D03*
X0210750Y0106781D03*
X0210750Y0102844D03*
X0330750Y0102844D03*
X0330750Y0106781D03*
X0330750Y0110719D03*
X0330750Y0114656D03*
X0372750Y0114656D03*
X0372750Y0110719D03*
X0372750Y0106781D03*
X0372750Y0102844D03*
X0492750Y0102844D03*
X0492750Y0106781D03*
X0492750Y0110719D03*
X0492750Y0114656D03*
X0534750Y0114656D03*
X0534750Y0110719D03*
X0534750Y0106781D03*
X0534750Y0102844D03*
X0654750Y0102844D03*
X0654750Y0106781D03*
X0654750Y0110719D03*
X0654750Y0114656D03*
D14*
X0660904Y0127250D03*
X0667596Y0127250D03*
X0633096Y0058750D03*
X0626404Y0058750D03*
X0618096Y0058750D03*
X0611404Y0058750D03*
X0528096Y0088750D03*
X0521404Y0088750D03*
X0505596Y0127250D03*
X0498904Y0127250D03*
X0471096Y0058750D03*
X0464404Y0058750D03*
X0456096Y0058750D03*
X0449404Y0058750D03*
X0366096Y0088750D03*
X0359404Y0088750D03*
X0343596Y0127250D03*
X0336904Y0127250D03*
X0309096Y0058750D03*
X0302404Y0058750D03*
X0294096Y0058750D03*
X0287404Y0058750D03*
X0204096Y0088750D03*
X0197404Y0088750D03*
X0181596Y0127250D03*
X0174904Y0127250D03*
X0147096Y0058750D03*
X0140404Y0058750D03*
X0132096Y0058750D03*
X0125404Y0058750D03*
X0042096Y0088750D03*
X0035404Y0088750D03*
X0125404Y0220750D03*
X0132096Y0220750D03*
X0140404Y0220750D03*
X0147096Y0220750D03*
X0197404Y0250750D03*
X0204096Y0250750D03*
X0181596Y0289250D03*
X0174904Y0289250D03*
X0287404Y0220750D03*
X0294096Y0220750D03*
X0302404Y0220750D03*
X0309096Y0220750D03*
X0359404Y0250750D03*
X0366096Y0250750D03*
X0343596Y0289250D03*
X0336904Y0289250D03*
X0449404Y0220750D03*
X0456096Y0220750D03*
X0464404Y0220750D03*
X0471096Y0220750D03*
X0521404Y0250750D03*
X0528096Y0250750D03*
X0505596Y0289250D03*
X0498904Y0289250D03*
X0611404Y0220750D03*
X0618096Y0220750D03*
X0626404Y0220750D03*
X0633096Y0220750D03*
X0660904Y0289250D03*
X0667596Y0289250D03*
X0633096Y0382750D03*
X0626404Y0382750D03*
X0618096Y0382750D03*
X0611404Y0382750D03*
X0528096Y0412750D03*
X0521404Y0412750D03*
X0505596Y0451250D03*
X0498904Y0451250D03*
X0471096Y0382750D03*
X0464404Y0382750D03*
X0456096Y0382750D03*
X0449404Y0382750D03*
X0366096Y0412750D03*
X0359404Y0412750D03*
X0343596Y0451250D03*
X0336904Y0451250D03*
X0309096Y0382750D03*
X0302404Y0382750D03*
X0294096Y0382750D03*
X0287404Y0382750D03*
X0204096Y0412750D03*
X0197404Y0412750D03*
X0181596Y0451250D03*
X0174904Y0451250D03*
X0147096Y0382750D03*
X0140404Y0382750D03*
X0132096Y0382750D03*
X0125404Y0382750D03*
X0042096Y0412750D03*
X0035404Y0412750D03*
X0035404Y0250750D03*
X0042096Y0250750D03*
X0660904Y0451250D03*
X0667596Y0451250D03*
D15*
X0625650Y0489404D03*
X0619750Y0489404D03*
X0619750Y0496096D03*
X0625650Y0496096D03*
X0547250Y0499404D03*
X0539750Y0499404D03*
X0539750Y0506096D03*
X0547250Y0506096D03*
X0463650Y0496096D03*
X0457750Y0496096D03*
X0457750Y0489404D03*
X0463650Y0489404D03*
X0385250Y0499404D03*
X0377750Y0499404D03*
X0377750Y0506096D03*
X0385250Y0506096D03*
X0301650Y0496096D03*
X0295750Y0496096D03*
X0295750Y0489404D03*
X0301650Y0489404D03*
X0223250Y0499404D03*
X0215750Y0499404D03*
X0215750Y0506096D03*
X0223250Y0506096D03*
X0139650Y0496096D03*
X0133750Y0496096D03*
X0133750Y0489404D03*
X0139650Y0489404D03*
X0061250Y0499404D03*
X0053750Y0499404D03*
X0053750Y0506096D03*
X0061250Y0506096D03*
X0048750Y0396096D03*
X0048750Y0389404D03*
X0053750Y0344096D03*
X0053750Y0337404D03*
X0061250Y0337404D03*
X0061250Y0344096D03*
X0133750Y0334096D03*
X0139650Y0334096D03*
X0139650Y0327404D03*
X0133750Y0327404D03*
X0158750Y0382404D03*
X0158750Y0389096D03*
X0178750Y0389596D03*
X0178750Y0382904D03*
X0210750Y0389404D03*
X0210750Y0396096D03*
X0215750Y0344096D03*
X0215750Y0337404D03*
X0223250Y0337404D03*
X0223250Y0344096D03*
X0295750Y0334096D03*
X0301650Y0334096D03*
X0301650Y0327404D03*
X0295750Y0327404D03*
X0320750Y0382404D03*
X0320750Y0389096D03*
X0340750Y0389596D03*
X0340750Y0382904D03*
X0372750Y0389404D03*
X0372750Y0396096D03*
X0377750Y0344096D03*
X0377750Y0337404D03*
X0385250Y0337404D03*
X0385250Y0344096D03*
X0457750Y0334096D03*
X0463650Y0334096D03*
X0463650Y0327404D03*
X0457750Y0327404D03*
X0482750Y0382404D03*
X0482750Y0389096D03*
X0502750Y0389596D03*
X0502750Y0382904D03*
X0534750Y0389404D03*
X0534750Y0396096D03*
X0539750Y0344096D03*
X0539750Y0337404D03*
X0547250Y0337404D03*
X0547250Y0344096D03*
X0619750Y0334096D03*
X0625650Y0334096D03*
X0625650Y0327404D03*
X0619750Y0327404D03*
X0644750Y0382404D03*
X0644750Y0389096D03*
X0664750Y0389596D03*
X0664750Y0382904D03*
X0534750Y0234096D03*
X0534750Y0227404D03*
X0502750Y0227596D03*
X0502750Y0220904D03*
X0482750Y0220404D03*
X0482750Y0227096D03*
X0539750Y0182096D03*
X0539750Y0175404D03*
X0547250Y0175404D03*
X0547250Y0182096D03*
X0619750Y0172096D03*
X0625650Y0172096D03*
X0625650Y0165404D03*
X0619750Y0165404D03*
X0644750Y0220404D03*
X0644750Y0227096D03*
X0664750Y0227596D03*
X0664750Y0220904D03*
X0534750Y0072096D03*
X0534750Y0065404D03*
X0502750Y0065596D03*
X0502750Y0058904D03*
X0482750Y0058404D03*
X0482750Y0065096D03*
X0372750Y0065404D03*
X0372750Y0072096D03*
X0340750Y0065596D03*
X0340750Y0058904D03*
X0320750Y0058404D03*
X0320750Y0065096D03*
X0210750Y0065404D03*
X0210750Y0072096D03*
X0178750Y0065596D03*
X0178750Y0058904D03*
X0158750Y0058404D03*
X0158750Y0065096D03*
X0048750Y0065404D03*
X0048750Y0072096D03*
X0133750Y0165404D03*
X0139650Y0165404D03*
X0139650Y0172096D03*
X0133750Y0172096D03*
X0158750Y0220404D03*
X0158750Y0227096D03*
X0178750Y0227596D03*
X0178750Y0220904D03*
X0210750Y0227404D03*
X0210750Y0234096D03*
X0215750Y0182096D03*
X0215750Y0175404D03*
X0223250Y0175404D03*
X0223250Y0182096D03*
X0295750Y0172096D03*
X0301650Y0172096D03*
X0301650Y0165404D03*
X0295750Y0165404D03*
X0320750Y0220404D03*
X0320750Y0227096D03*
X0340750Y0227596D03*
X0340750Y0220904D03*
X0372750Y0227404D03*
X0372750Y0234096D03*
X0377750Y0182096D03*
X0377750Y0175404D03*
X0385250Y0175404D03*
X0385250Y0182096D03*
X0457750Y0172096D03*
X0463650Y0172096D03*
X0463650Y0165404D03*
X0457750Y0165404D03*
X0644750Y0065096D03*
X0644750Y0058404D03*
X0664750Y0058904D03*
X0664750Y0065596D03*
X0061250Y0175404D03*
X0061250Y0182096D03*
X0053750Y0182096D03*
X0053750Y0175404D03*
X0048750Y0227404D03*
X0048750Y0234096D03*
D16*
X0045648Y0304199D02*
X0036199Y0304199D01*
X0036199Y0313648D01*
X0045648Y0304199D01*
X0045636Y0304210D02*
X0036199Y0304210D01*
X0036199Y0304405D02*
X0045441Y0304405D01*
X0045246Y0304601D02*
X0036199Y0304601D01*
X0036199Y0304796D02*
X0045050Y0304796D01*
X0044855Y0304991D02*
X0036199Y0304991D01*
X0036199Y0305187D02*
X0044660Y0305187D01*
X0044464Y0305382D02*
X0036199Y0305382D01*
X0036199Y0305578D02*
X0044269Y0305578D01*
X0044074Y0305773D02*
X0036199Y0305773D01*
X0036199Y0305968D02*
X0043878Y0305968D01*
X0043683Y0306164D02*
X0036199Y0306164D01*
X0036199Y0306359D02*
X0043487Y0306359D01*
X0043292Y0306554D02*
X0036199Y0306554D01*
X0036199Y0306750D02*
X0043097Y0306750D01*
X0042901Y0306945D02*
X0036199Y0306945D01*
X0036199Y0307140D02*
X0042706Y0307140D01*
X0042511Y0307336D02*
X0036199Y0307336D01*
X0036199Y0307531D02*
X0042315Y0307531D01*
X0042120Y0307727D02*
X0036199Y0307727D01*
X0036199Y0307922D02*
X0041925Y0307922D01*
X0041729Y0308117D02*
X0036199Y0308117D01*
X0036199Y0308313D02*
X0041534Y0308313D01*
X0041338Y0308508D02*
X0036199Y0308508D01*
X0036199Y0308703D02*
X0041143Y0308703D01*
X0040948Y0308899D02*
X0036199Y0308899D01*
X0036199Y0309094D02*
X0040752Y0309094D01*
X0040557Y0309289D02*
X0036199Y0309289D01*
X0036199Y0309485D02*
X0040362Y0309485D01*
X0040166Y0309680D02*
X0036199Y0309680D01*
X0036199Y0309876D02*
X0039971Y0309876D01*
X0039776Y0310071D02*
X0036199Y0310071D01*
X0036199Y0310266D02*
X0039580Y0310266D01*
X0039385Y0310462D02*
X0036199Y0310462D01*
X0036199Y0310657D02*
X0039190Y0310657D01*
X0038994Y0310852D02*
X0036199Y0310852D01*
X0036199Y0311048D02*
X0038799Y0311048D01*
X0038603Y0311243D02*
X0036199Y0311243D01*
X0036199Y0311438D02*
X0038408Y0311438D01*
X0038213Y0311634D02*
X0036199Y0311634D01*
X0036199Y0311829D02*
X0038017Y0311829D01*
X0037822Y0312024D02*
X0036199Y0312024D01*
X0036199Y0312220D02*
X0037627Y0312220D01*
X0037431Y0312415D02*
X0036199Y0312415D01*
X0036199Y0312611D02*
X0037236Y0312611D01*
X0037041Y0312806D02*
X0036199Y0312806D01*
X0036199Y0313001D02*
X0036845Y0313001D01*
X0036650Y0313197D02*
X0036199Y0313197D01*
X0036199Y0313392D02*
X0036454Y0313392D01*
X0036259Y0313587D02*
X0036199Y0313587D01*
X0198199Y0313648D02*
X0198199Y0304199D01*
X0207648Y0304199D01*
X0198199Y0313648D01*
X0198199Y0313587D02*
X0198259Y0313587D01*
X0198199Y0313392D02*
X0198454Y0313392D01*
X0198650Y0313197D02*
X0198199Y0313197D01*
X0198199Y0313001D02*
X0198845Y0313001D01*
X0199041Y0312806D02*
X0198199Y0312806D01*
X0198199Y0312611D02*
X0199236Y0312611D01*
X0199431Y0312415D02*
X0198199Y0312415D01*
X0198199Y0312220D02*
X0199627Y0312220D01*
X0199822Y0312024D02*
X0198199Y0312024D01*
X0198199Y0311829D02*
X0200017Y0311829D01*
X0200213Y0311634D02*
X0198199Y0311634D01*
X0198199Y0311438D02*
X0200408Y0311438D01*
X0200603Y0311243D02*
X0198199Y0311243D01*
X0198199Y0311048D02*
X0200799Y0311048D01*
X0200994Y0310852D02*
X0198199Y0310852D01*
X0198199Y0310657D02*
X0201190Y0310657D01*
X0201385Y0310462D02*
X0198199Y0310462D01*
X0198199Y0310266D02*
X0201580Y0310266D01*
X0201776Y0310071D02*
X0198199Y0310071D01*
X0198199Y0309876D02*
X0201971Y0309876D01*
X0202166Y0309680D02*
X0198199Y0309680D01*
X0198199Y0309485D02*
X0202362Y0309485D01*
X0202557Y0309289D02*
X0198199Y0309289D01*
X0198199Y0309094D02*
X0202752Y0309094D01*
X0202948Y0308899D02*
X0198199Y0308899D01*
X0198199Y0308703D02*
X0203143Y0308703D01*
X0203338Y0308508D02*
X0198199Y0308508D01*
X0198199Y0308313D02*
X0203534Y0308313D01*
X0203729Y0308117D02*
X0198199Y0308117D01*
X0198199Y0307922D02*
X0203925Y0307922D01*
X0204120Y0307727D02*
X0198199Y0307727D01*
X0198199Y0307531D02*
X0204315Y0307531D01*
X0204511Y0307336D02*
X0198199Y0307336D01*
X0198199Y0307140D02*
X0204706Y0307140D01*
X0204901Y0306945D02*
X0198199Y0306945D01*
X0198199Y0306750D02*
X0205097Y0306750D01*
X0205292Y0306554D02*
X0198199Y0306554D01*
X0198199Y0306359D02*
X0205487Y0306359D01*
X0205683Y0306164D02*
X0198199Y0306164D01*
X0198199Y0305968D02*
X0205878Y0305968D01*
X0206074Y0305773D02*
X0198199Y0305773D01*
X0198199Y0305578D02*
X0206269Y0305578D01*
X0206464Y0305382D02*
X0198199Y0305382D01*
X0198199Y0305187D02*
X0206660Y0305187D01*
X0206855Y0304991D02*
X0198199Y0304991D01*
X0198199Y0304796D02*
X0207050Y0304796D01*
X0207246Y0304601D02*
X0198199Y0304601D01*
X0198199Y0304405D02*
X0207441Y0304405D01*
X0207636Y0304210D02*
X0198199Y0304210D01*
X0360199Y0304210D02*
X0369636Y0304210D01*
X0369648Y0304199D02*
X0360199Y0313648D01*
X0360199Y0304199D01*
X0369648Y0304199D01*
X0369441Y0304405D02*
X0360199Y0304405D01*
X0360199Y0304601D02*
X0369246Y0304601D01*
X0369050Y0304796D02*
X0360199Y0304796D01*
X0360199Y0304991D02*
X0368855Y0304991D01*
X0368660Y0305187D02*
X0360199Y0305187D01*
X0360199Y0305382D02*
X0368464Y0305382D01*
X0368269Y0305578D02*
X0360199Y0305578D01*
X0360199Y0305773D02*
X0368074Y0305773D01*
X0367878Y0305968D02*
X0360199Y0305968D01*
X0360199Y0306164D02*
X0367683Y0306164D01*
X0367487Y0306359D02*
X0360199Y0306359D01*
X0360199Y0306554D02*
X0367292Y0306554D01*
X0367097Y0306750D02*
X0360199Y0306750D01*
X0360199Y0306945D02*
X0366901Y0306945D01*
X0366706Y0307140D02*
X0360199Y0307140D01*
X0360199Y0307336D02*
X0366511Y0307336D01*
X0366315Y0307531D02*
X0360199Y0307531D01*
X0360199Y0307727D02*
X0366120Y0307727D01*
X0365925Y0307922D02*
X0360199Y0307922D01*
X0360199Y0308117D02*
X0365729Y0308117D01*
X0365534Y0308313D02*
X0360199Y0308313D01*
X0360199Y0308508D02*
X0365338Y0308508D01*
X0365143Y0308703D02*
X0360199Y0308703D01*
X0360199Y0308899D02*
X0364948Y0308899D01*
X0364752Y0309094D02*
X0360199Y0309094D01*
X0360199Y0309289D02*
X0364557Y0309289D01*
X0364362Y0309485D02*
X0360199Y0309485D01*
X0360199Y0309680D02*
X0364166Y0309680D01*
X0363971Y0309876D02*
X0360199Y0309876D01*
X0360199Y0310071D02*
X0363776Y0310071D01*
X0363580Y0310266D02*
X0360199Y0310266D01*
X0360199Y0310462D02*
X0363385Y0310462D01*
X0363190Y0310657D02*
X0360199Y0310657D01*
X0360199Y0310852D02*
X0362994Y0310852D01*
X0362799Y0311048D02*
X0360199Y0311048D01*
X0360199Y0311243D02*
X0362603Y0311243D01*
X0362408Y0311438D02*
X0360199Y0311438D01*
X0360199Y0311634D02*
X0362213Y0311634D01*
X0362017Y0311829D02*
X0360199Y0311829D01*
X0360199Y0312024D02*
X0361822Y0312024D01*
X0361627Y0312220D02*
X0360199Y0312220D01*
X0360199Y0312415D02*
X0361431Y0312415D01*
X0361236Y0312611D02*
X0360199Y0312611D01*
X0360199Y0312806D02*
X0361041Y0312806D01*
X0360845Y0313001D02*
X0360199Y0313001D01*
X0360199Y0313197D02*
X0360650Y0313197D01*
X0360454Y0313392D02*
X0360199Y0313392D01*
X0360199Y0313587D02*
X0360259Y0313587D01*
X0522199Y0313648D02*
X0522199Y0304199D01*
X0531648Y0304199D01*
X0522199Y0313648D01*
X0522199Y0313587D02*
X0522259Y0313587D01*
X0522199Y0313392D02*
X0522454Y0313392D01*
X0522650Y0313197D02*
X0522199Y0313197D01*
X0522199Y0313001D02*
X0522845Y0313001D01*
X0523041Y0312806D02*
X0522199Y0312806D01*
X0522199Y0312611D02*
X0523236Y0312611D01*
X0523431Y0312415D02*
X0522199Y0312415D01*
X0522199Y0312220D02*
X0523627Y0312220D01*
X0523822Y0312024D02*
X0522199Y0312024D01*
X0522199Y0311829D02*
X0524017Y0311829D01*
X0524213Y0311634D02*
X0522199Y0311634D01*
X0522199Y0311438D02*
X0524408Y0311438D01*
X0524603Y0311243D02*
X0522199Y0311243D01*
X0522199Y0311048D02*
X0524799Y0311048D01*
X0524994Y0310852D02*
X0522199Y0310852D01*
X0522199Y0310657D02*
X0525190Y0310657D01*
X0525385Y0310462D02*
X0522199Y0310462D01*
X0522199Y0310266D02*
X0525580Y0310266D01*
X0525776Y0310071D02*
X0522199Y0310071D01*
X0522199Y0309876D02*
X0525971Y0309876D01*
X0526166Y0309680D02*
X0522199Y0309680D01*
X0522199Y0309485D02*
X0526362Y0309485D01*
X0526557Y0309289D02*
X0522199Y0309289D01*
X0522199Y0309094D02*
X0526752Y0309094D01*
X0526948Y0308899D02*
X0522199Y0308899D01*
X0522199Y0308703D02*
X0527143Y0308703D01*
X0527338Y0308508D02*
X0522199Y0308508D01*
X0522199Y0308313D02*
X0527534Y0308313D01*
X0527729Y0308117D02*
X0522199Y0308117D01*
X0522199Y0307922D02*
X0527925Y0307922D01*
X0528120Y0307727D02*
X0522199Y0307727D01*
X0522199Y0307531D02*
X0528315Y0307531D01*
X0528511Y0307336D02*
X0522199Y0307336D01*
X0522199Y0307140D02*
X0528706Y0307140D01*
X0528901Y0306945D02*
X0522199Y0306945D01*
X0522199Y0306750D02*
X0529097Y0306750D01*
X0529292Y0306554D02*
X0522199Y0306554D01*
X0522199Y0306359D02*
X0529487Y0306359D01*
X0529683Y0306164D02*
X0522199Y0306164D01*
X0522199Y0305968D02*
X0529878Y0305968D01*
X0530074Y0305773D02*
X0522199Y0305773D01*
X0522199Y0305578D02*
X0530269Y0305578D01*
X0530464Y0305382D02*
X0522199Y0305382D01*
X0522199Y0305187D02*
X0530660Y0305187D01*
X0530855Y0304991D02*
X0522199Y0304991D01*
X0522199Y0304796D02*
X0531050Y0304796D01*
X0531246Y0304601D02*
X0522199Y0304601D01*
X0522199Y0304405D02*
X0531441Y0304405D01*
X0531636Y0304210D02*
X0522199Y0304210D01*
X0522199Y0151648D02*
X0531648Y0142199D01*
X0522199Y0142199D01*
X0522199Y0151648D01*
X0522199Y0151633D02*
X0522214Y0151633D01*
X0522199Y0151437D02*
X0522409Y0151437D01*
X0522605Y0151242D02*
X0522199Y0151242D01*
X0522199Y0151046D02*
X0522800Y0151046D01*
X0522995Y0150851D02*
X0522199Y0150851D01*
X0522199Y0150656D02*
X0523191Y0150656D01*
X0523386Y0150460D02*
X0522199Y0150460D01*
X0522199Y0150265D02*
X0523581Y0150265D01*
X0523777Y0150070D02*
X0522199Y0150070D01*
X0522199Y0149874D02*
X0523972Y0149874D01*
X0524168Y0149679D02*
X0522199Y0149679D01*
X0522199Y0149484D02*
X0524363Y0149484D01*
X0524558Y0149288D02*
X0522199Y0149288D01*
X0522199Y0149093D02*
X0524754Y0149093D01*
X0524949Y0148897D02*
X0522199Y0148897D01*
X0522199Y0148702D02*
X0525144Y0148702D01*
X0525340Y0148507D02*
X0522199Y0148507D01*
X0522199Y0148311D02*
X0525535Y0148311D01*
X0525730Y0148116D02*
X0522199Y0148116D01*
X0522199Y0147921D02*
X0525926Y0147921D01*
X0526121Y0147725D02*
X0522199Y0147725D01*
X0522199Y0147530D02*
X0526317Y0147530D01*
X0526512Y0147335D02*
X0522199Y0147335D01*
X0522199Y0147139D02*
X0526707Y0147139D01*
X0526903Y0146944D02*
X0522199Y0146944D01*
X0522199Y0146748D02*
X0527098Y0146748D01*
X0527293Y0146553D02*
X0522199Y0146553D01*
X0522199Y0146358D02*
X0527489Y0146358D01*
X0527684Y0146162D02*
X0522199Y0146162D01*
X0522199Y0145967D02*
X0527879Y0145967D01*
X0528075Y0145772D02*
X0522199Y0145772D01*
X0522199Y0145576D02*
X0528270Y0145576D01*
X0528466Y0145381D02*
X0522199Y0145381D01*
X0522199Y0145186D02*
X0528661Y0145186D01*
X0528856Y0144990D02*
X0522199Y0144990D01*
X0522199Y0144795D02*
X0529052Y0144795D01*
X0529247Y0144599D02*
X0522199Y0144599D01*
X0522199Y0144404D02*
X0529442Y0144404D01*
X0529638Y0144209D02*
X0522199Y0144209D01*
X0522199Y0144013D02*
X0529833Y0144013D01*
X0530028Y0143818D02*
X0522199Y0143818D01*
X0522199Y0143623D02*
X0530224Y0143623D01*
X0530419Y0143427D02*
X0522199Y0143427D01*
X0522199Y0143232D02*
X0530614Y0143232D01*
X0530810Y0143037D02*
X0522199Y0143037D01*
X0522199Y0142841D02*
X0531005Y0142841D01*
X0531201Y0142646D02*
X0522199Y0142646D01*
X0522199Y0142451D02*
X0531396Y0142451D01*
X0531591Y0142255D02*
X0522199Y0142255D01*
X0369648Y0142199D02*
X0360199Y0151648D01*
X0360199Y0142199D01*
X0369648Y0142199D01*
X0369591Y0142255D02*
X0360199Y0142255D01*
X0360199Y0142451D02*
X0369396Y0142451D01*
X0369201Y0142646D02*
X0360199Y0142646D01*
X0360199Y0142841D02*
X0369005Y0142841D01*
X0368810Y0143037D02*
X0360199Y0143037D01*
X0360199Y0143232D02*
X0368614Y0143232D01*
X0368419Y0143427D02*
X0360199Y0143427D01*
X0360199Y0143623D02*
X0368224Y0143623D01*
X0368028Y0143818D02*
X0360199Y0143818D01*
X0360199Y0144013D02*
X0367833Y0144013D01*
X0367638Y0144209D02*
X0360199Y0144209D01*
X0360199Y0144404D02*
X0367442Y0144404D01*
X0367247Y0144599D02*
X0360199Y0144599D01*
X0360199Y0144795D02*
X0367052Y0144795D01*
X0366856Y0144990D02*
X0360199Y0144990D01*
X0360199Y0145186D02*
X0366661Y0145186D01*
X0366466Y0145381D02*
X0360199Y0145381D01*
X0360199Y0145576D02*
X0366270Y0145576D01*
X0366075Y0145772D02*
X0360199Y0145772D01*
X0360199Y0145967D02*
X0365879Y0145967D01*
X0365684Y0146162D02*
X0360199Y0146162D01*
X0360199Y0146358D02*
X0365489Y0146358D01*
X0365293Y0146553D02*
X0360199Y0146553D01*
X0360199Y0146748D02*
X0365098Y0146748D01*
X0364903Y0146944D02*
X0360199Y0146944D01*
X0360199Y0147139D02*
X0364707Y0147139D01*
X0364512Y0147335D02*
X0360199Y0147335D01*
X0360199Y0147530D02*
X0364317Y0147530D01*
X0364121Y0147725D02*
X0360199Y0147725D01*
X0360199Y0147921D02*
X0363926Y0147921D01*
X0363730Y0148116D02*
X0360199Y0148116D01*
X0360199Y0148311D02*
X0363535Y0148311D01*
X0363340Y0148507D02*
X0360199Y0148507D01*
X0360199Y0148702D02*
X0363144Y0148702D01*
X0362949Y0148897D02*
X0360199Y0148897D01*
X0360199Y0149093D02*
X0362754Y0149093D01*
X0362558Y0149288D02*
X0360199Y0149288D01*
X0360199Y0149484D02*
X0362363Y0149484D01*
X0362168Y0149679D02*
X0360199Y0149679D01*
X0360199Y0149874D02*
X0361972Y0149874D01*
X0361777Y0150070D02*
X0360199Y0150070D01*
X0360199Y0150265D02*
X0361581Y0150265D01*
X0361386Y0150460D02*
X0360199Y0150460D01*
X0360199Y0150656D02*
X0361191Y0150656D01*
X0360995Y0150851D02*
X0360199Y0150851D01*
X0360199Y0151046D02*
X0360800Y0151046D01*
X0360605Y0151242D02*
X0360199Y0151242D01*
X0360199Y0151437D02*
X0360409Y0151437D01*
X0360214Y0151633D02*
X0360199Y0151633D01*
X0207648Y0142199D02*
X0198199Y0151648D01*
X0198199Y0142199D01*
X0207648Y0142199D01*
X0207591Y0142255D02*
X0198199Y0142255D01*
X0198199Y0142451D02*
X0207396Y0142451D01*
X0207201Y0142646D02*
X0198199Y0142646D01*
X0198199Y0142841D02*
X0207005Y0142841D01*
X0206810Y0143037D02*
X0198199Y0143037D01*
X0198199Y0143232D02*
X0206614Y0143232D01*
X0206419Y0143427D02*
X0198199Y0143427D01*
X0198199Y0143623D02*
X0206224Y0143623D01*
X0206028Y0143818D02*
X0198199Y0143818D01*
X0198199Y0144013D02*
X0205833Y0144013D01*
X0205638Y0144209D02*
X0198199Y0144209D01*
X0198199Y0144404D02*
X0205442Y0144404D01*
X0205247Y0144599D02*
X0198199Y0144599D01*
X0198199Y0144795D02*
X0205052Y0144795D01*
X0204856Y0144990D02*
X0198199Y0144990D01*
X0198199Y0145186D02*
X0204661Y0145186D01*
X0204466Y0145381D02*
X0198199Y0145381D01*
X0198199Y0145576D02*
X0204270Y0145576D01*
X0204075Y0145772D02*
X0198199Y0145772D01*
X0198199Y0145967D02*
X0203879Y0145967D01*
X0203684Y0146162D02*
X0198199Y0146162D01*
X0198199Y0146358D02*
X0203489Y0146358D01*
X0203293Y0146553D02*
X0198199Y0146553D01*
X0198199Y0146748D02*
X0203098Y0146748D01*
X0202903Y0146944D02*
X0198199Y0146944D01*
X0198199Y0147139D02*
X0202707Y0147139D01*
X0202512Y0147335D02*
X0198199Y0147335D01*
X0198199Y0147530D02*
X0202317Y0147530D01*
X0202121Y0147725D02*
X0198199Y0147725D01*
X0198199Y0147921D02*
X0201926Y0147921D01*
X0201730Y0148116D02*
X0198199Y0148116D01*
X0198199Y0148311D02*
X0201535Y0148311D01*
X0201340Y0148507D02*
X0198199Y0148507D01*
X0198199Y0148702D02*
X0201144Y0148702D01*
X0200949Y0148897D02*
X0198199Y0148897D01*
X0198199Y0149093D02*
X0200754Y0149093D01*
X0200558Y0149288D02*
X0198199Y0149288D01*
X0198199Y0149484D02*
X0200363Y0149484D01*
X0200168Y0149679D02*
X0198199Y0149679D01*
X0198199Y0149874D02*
X0199972Y0149874D01*
X0199777Y0150070D02*
X0198199Y0150070D01*
X0198199Y0150265D02*
X0199581Y0150265D01*
X0199386Y0150460D02*
X0198199Y0150460D01*
X0198199Y0150656D02*
X0199191Y0150656D01*
X0198995Y0150851D02*
X0198199Y0150851D01*
X0198199Y0151046D02*
X0198800Y0151046D01*
X0198605Y0151242D02*
X0198199Y0151242D01*
X0198199Y0151437D02*
X0198409Y0151437D01*
X0198214Y0151633D02*
X0198199Y0151633D01*
X0045648Y0142199D02*
X0036199Y0151648D01*
X0036199Y0142199D01*
X0045648Y0142199D01*
X0045591Y0142255D02*
X0036199Y0142255D01*
X0036199Y0142451D02*
X0045396Y0142451D01*
X0045201Y0142646D02*
X0036199Y0142646D01*
X0036199Y0142841D02*
X0045005Y0142841D01*
X0044810Y0143037D02*
X0036199Y0143037D01*
X0036199Y0143232D02*
X0044614Y0143232D01*
X0044419Y0143427D02*
X0036199Y0143427D01*
X0036199Y0143623D02*
X0044224Y0143623D01*
X0044028Y0143818D02*
X0036199Y0143818D01*
X0036199Y0144013D02*
X0043833Y0144013D01*
X0043638Y0144209D02*
X0036199Y0144209D01*
X0036199Y0144404D02*
X0043442Y0144404D01*
X0043247Y0144599D02*
X0036199Y0144599D01*
X0036199Y0144795D02*
X0043052Y0144795D01*
X0042856Y0144990D02*
X0036199Y0144990D01*
X0036199Y0145186D02*
X0042661Y0145186D01*
X0042466Y0145381D02*
X0036199Y0145381D01*
X0036199Y0145576D02*
X0042270Y0145576D01*
X0042075Y0145772D02*
X0036199Y0145772D01*
X0036199Y0145967D02*
X0041879Y0145967D01*
X0041684Y0146162D02*
X0036199Y0146162D01*
X0036199Y0146358D02*
X0041489Y0146358D01*
X0041293Y0146553D02*
X0036199Y0146553D01*
X0036199Y0146748D02*
X0041098Y0146748D01*
X0040903Y0146944D02*
X0036199Y0146944D01*
X0036199Y0147139D02*
X0040707Y0147139D01*
X0040512Y0147335D02*
X0036199Y0147335D01*
X0036199Y0147530D02*
X0040317Y0147530D01*
X0040121Y0147725D02*
X0036199Y0147725D01*
X0036199Y0147921D02*
X0039926Y0147921D01*
X0039730Y0148116D02*
X0036199Y0148116D01*
X0036199Y0148311D02*
X0039535Y0148311D01*
X0039340Y0148507D02*
X0036199Y0148507D01*
X0036199Y0148702D02*
X0039144Y0148702D01*
X0038949Y0148897D02*
X0036199Y0148897D01*
X0036199Y0149093D02*
X0038754Y0149093D01*
X0038558Y0149288D02*
X0036199Y0149288D01*
X0036199Y0149484D02*
X0038363Y0149484D01*
X0038168Y0149679D02*
X0036199Y0149679D01*
X0036199Y0149874D02*
X0037972Y0149874D01*
X0037777Y0150070D02*
X0036199Y0150070D01*
X0036199Y0150265D02*
X0037581Y0150265D01*
X0037386Y0150460D02*
X0036199Y0150460D01*
X0036199Y0150656D02*
X0037191Y0150656D01*
X0036995Y0150851D02*
X0036199Y0150851D01*
X0036199Y0151046D02*
X0036800Y0151046D01*
X0036605Y0151242D02*
X0036199Y0151242D01*
X0036199Y0151437D02*
X0036409Y0151437D01*
X0036214Y0151633D02*
X0036199Y0151633D01*
X0036199Y0466199D02*
X0036199Y0475648D01*
X0045648Y0466199D01*
X0036199Y0466199D01*
X0036199Y0466360D02*
X0045486Y0466360D01*
X0045291Y0466556D02*
X0036199Y0466556D01*
X0036199Y0466751D02*
X0045095Y0466751D01*
X0044900Y0466946D02*
X0036199Y0466946D01*
X0036199Y0467142D02*
X0044705Y0467142D01*
X0044509Y0467337D02*
X0036199Y0467337D01*
X0036199Y0467532D02*
X0044314Y0467532D01*
X0044119Y0467728D02*
X0036199Y0467728D01*
X0036199Y0467923D02*
X0043923Y0467923D01*
X0043728Y0468118D02*
X0036199Y0468118D01*
X0036199Y0468314D02*
X0043533Y0468314D01*
X0043337Y0468509D02*
X0036199Y0468509D01*
X0036199Y0468705D02*
X0043142Y0468705D01*
X0042947Y0468900D02*
X0036199Y0468900D01*
X0036199Y0469095D02*
X0042751Y0469095D01*
X0042556Y0469291D02*
X0036199Y0469291D01*
X0036199Y0469486D02*
X0042360Y0469486D01*
X0042165Y0469681D02*
X0036199Y0469681D01*
X0036199Y0469877D02*
X0041970Y0469877D01*
X0041774Y0470072D02*
X0036199Y0470072D01*
X0036199Y0470267D02*
X0041579Y0470267D01*
X0041384Y0470463D02*
X0036199Y0470463D01*
X0036199Y0470658D02*
X0041188Y0470658D01*
X0040993Y0470854D02*
X0036199Y0470854D01*
X0036199Y0471049D02*
X0040798Y0471049D01*
X0040602Y0471244D02*
X0036199Y0471244D01*
X0036199Y0471440D02*
X0040407Y0471440D01*
X0040211Y0471635D02*
X0036199Y0471635D01*
X0036199Y0471830D02*
X0040016Y0471830D01*
X0039821Y0472026D02*
X0036199Y0472026D01*
X0036199Y0472221D02*
X0039625Y0472221D01*
X0039430Y0472416D02*
X0036199Y0472416D01*
X0036199Y0472612D02*
X0039235Y0472612D01*
X0039039Y0472807D02*
X0036199Y0472807D01*
X0036199Y0473003D02*
X0038844Y0473003D01*
X0038649Y0473198D02*
X0036199Y0473198D01*
X0036199Y0473393D02*
X0038453Y0473393D01*
X0038258Y0473589D02*
X0036199Y0473589D01*
X0036199Y0473784D02*
X0038062Y0473784D01*
X0037867Y0473979D02*
X0036199Y0473979D01*
X0036199Y0474175D02*
X0037672Y0474175D01*
X0037476Y0474370D02*
X0036199Y0474370D01*
X0036199Y0474565D02*
X0037281Y0474565D01*
X0037086Y0474761D02*
X0036199Y0474761D01*
X0036199Y0474956D02*
X0036890Y0474956D01*
X0036695Y0475152D02*
X0036199Y0475152D01*
X0036199Y0475347D02*
X0036500Y0475347D01*
X0036304Y0475542D02*
X0036199Y0475542D01*
X0198199Y0475542D02*
X0198304Y0475542D01*
X0198199Y0475648D02*
X0207648Y0466199D01*
X0198199Y0466199D01*
X0198199Y0475648D01*
X0198199Y0475347D02*
X0198500Y0475347D01*
X0198695Y0475152D02*
X0198199Y0475152D01*
X0198199Y0474956D02*
X0198890Y0474956D01*
X0199086Y0474761D02*
X0198199Y0474761D01*
X0198199Y0474565D02*
X0199281Y0474565D01*
X0199476Y0474370D02*
X0198199Y0474370D01*
X0198199Y0474175D02*
X0199672Y0474175D01*
X0199867Y0473979D02*
X0198199Y0473979D01*
X0198199Y0473784D02*
X0200062Y0473784D01*
X0200258Y0473589D02*
X0198199Y0473589D01*
X0198199Y0473393D02*
X0200453Y0473393D01*
X0200649Y0473198D02*
X0198199Y0473198D01*
X0198199Y0473003D02*
X0200844Y0473003D01*
X0201039Y0472807D02*
X0198199Y0472807D01*
X0198199Y0472612D02*
X0201235Y0472612D01*
X0201430Y0472416D02*
X0198199Y0472416D01*
X0198199Y0472221D02*
X0201625Y0472221D01*
X0201821Y0472026D02*
X0198199Y0472026D01*
X0198199Y0471830D02*
X0202016Y0471830D01*
X0202211Y0471635D02*
X0198199Y0471635D01*
X0198199Y0471440D02*
X0202407Y0471440D01*
X0202602Y0471244D02*
X0198199Y0471244D01*
X0198199Y0471049D02*
X0202798Y0471049D01*
X0202993Y0470854D02*
X0198199Y0470854D01*
X0198199Y0470658D02*
X0203188Y0470658D01*
X0203384Y0470463D02*
X0198199Y0470463D01*
X0198199Y0470267D02*
X0203579Y0470267D01*
X0203774Y0470072D02*
X0198199Y0470072D01*
X0198199Y0469877D02*
X0203970Y0469877D01*
X0204165Y0469681D02*
X0198199Y0469681D01*
X0198199Y0469486D02*
X0204360Y0469486D01*
X0204556Y0469291D02*
X0198199Y0469291D01*
X0198199Y0469095D02*
X0204751Y0469095D01*
X0204947Y0468900D02*
X0198199Y0468900D01*
X0198199Y0468705D02*
X0205142Y0468705D01*
X0205337Y0468509D02*
X0198199Y0468509D01*
X0198199Y0468314D02*
X0205533Y0468314D01*
X0205728Y0468118D02*
X0198199Y0468118D01*
X0198199Y0467923D02*
X0205923Y0467923D01*
X0206119Y0467728D02*
X0198199Y0467728D01*
X0198199Y0467532D02*
X0206314Y0467532D01*
X0206509Y0467337D02*
X0198199Y0467337D01*
X0198199Y0467142D02*
X0206705Y0467142D01*
X0206900Y0466946D02*
X0198199Y0466946D01*
X0198199Y0466751D02*
X0207095Y0466751D01*
X0207291Y0466556D02*
X0198199Y0466556D01*
X0198199Y0466360D02*
X0207486Y0466360D01*
X0360199Y0466360D02*
X0369486Y0466360D01*
X0369648Y0466199D02*
X0360199Y0475648D01*
X0360199Y0466199D01*
X0369648Y0466199D01*
X0369291Y0466556D02*
X0360199Y0466556D01*
X0360199Y0466751D02*
X0369095Y0466751D01*
X0368900Y0466946D02*
X0360199Y0466946D01*
X0360199Y0467142D02*
X0368705Y0467142D01*
X0368509Y0467337D02*
X0360199Y0467337D01*
X0360199Y0467532D02*
X0368314Y0467532D01*
X0368119Y0467728D02*
X0360199Y0467728D01*
X0360199Y0467923D02*
X0367923Y0467923D01*
X0367728Y0468118D02*
X0360199Y0468118D01*
X0360199Y0468314D02*
X0367533Y0468314D01*
X0367337Y0468509D02*
X0360199Y0468509D01*
X0360199Y0468705D02*
X0367142Y0468705D01*
X0366947Y0468900D02*
X0360199Y0468900D01*
X0360199Y0469095D02*
X0366751Y0469095D01*
X0366556Y0469291D02*
X0360199Y0469291D01*
X0360199Y0469486D02*
X0366360Y0469486D01*
X0366165Y0469681D02*
X0360199Y0469681D01*
X0360199Y0469877D02*
X0365970Y0469877D01*
X0365774Y0470072D02*
X0360199Y0470072D01*
X0360199Y0470267D02*
X0365579Y0470267D01*
X0365384Y0470463D02*
X0360199Y0470463D01*
X0360199Y0470658D02*
X0365188Y0470658D01*
X0364993Y0470854D02*
X0360199Y0470854D01*
X0360199Y0471049D02*
X0364798Y0471049D01*
X0364602Y0471244D02*
X0360199Y0471244D01*
X0360199Y0471440D02*
X0364407Y0471440D01*
X0364211Y0471635D02*
X0360199Y0471635D01*
X0360199Y0471830D02*
X0364016Y0471830D01*
X0363821Y0472026D02*
X0360199Y0472026D01*
X0360199Y0472221D02*
X0363625Y0472221D01*
X0363430Y0472416D02*
X0360199Y0472416D01*
X0360199Y0472612D02*
X0363235Y0472612D01*
X0363039Y0472807D02*
X0360199Y0472807D01*
X0360199Y0473003D02*
X0362844Y0473003D01*
X0362649Y0473198D02*
X0360199Y0473198D01*
X0360199Y0473393D02*
X0362453Y0473393D01*
X0362258Y0473589D02*
X0360199Y0473589D01*
X0360199Y0473784D02*
X0362062Y0473784D01*
X0361867Y0473979D02*
X0360199Y0473979D01*
X0360199Y0474175D02*
X0361672Y0474175D01*
X0361476Y0474370D02*
X0360199Y0474370D01*
X0360199Y0474565D02*
X0361281Y0474565D01*
X0361086Y0474761D02*
X0360199Y0474761D01*
X0360199Y0474956D02*
X0360890Y0474956D01*
X0360695Y0475152D02*
X0360199Y0475152D01*
X0360199Y0475347D02*
X0360500Y0475347D01*
X0360304Y0475542D02*
X0360199Y0475542D01*
X0522199Y0475542D02*
X0522304Y0475542D01*
X0522199Y0475648D02*
X0531648Y0466199D01*
X0522199Y0466199D01*
X0522199Y0475648D01*
X0522199Y0475347D02*
X0522500Y0475347D01*
X0522695Y0475152D02*
X0522199Y0475152D01*
X0522199Y0474956D02*
X0522890Y0474956D01*
X0523086Y0474761D02*
X0522199Y0474761D01*
X0522199Y0474565D02*
X0523281Y0474565D01*
X0523476Y0474370D02*
X0522199Y0474370D01*
X0522199Y0474175D02*
X0523672Y0474175D01*
X0523867Y0473979D02*
X0522199Y0473979D01*
X0522199Y0473784D02*
X0524062Y0473784D01*
X0524258Y0473589D02*
X0522199Y0473589D01*
X0522199Y0473393D02*
X0524453Y0473393D01*
X0524649Y0473198D02*
X0522199Y0473198D01*
X0522199Y0473003D02*
X0524844Y0473003D01*
X0525039Y0472807D02*
X0522199Y0472807D01*
X0522199Y0472612D02*
X0525235Y0472612D01*
X0525430Y0472416D02*
X0522199Y0472416D01*
X0522199Y0472221D02*
X0525625Y0472221D01*
X0525821Y0472026D02*
X0522199Y0472026D01*
X0522199Y0471830D02*
X0526016Y0471830D01*
X0526211Y0471635D02*
X0522199Y0471635D01*
X0522199Y0471440D02*
X0526407Y0471440D01*
X0526602Y0471244D02*
X0522199Y0471244D01*
X0522199Y0471049D02*
X0526798Y0471049D01*
X0526993Y0470854D02*
X0522199Y0470854D01*
X0522199Y0470658D02*
X0527188Y0470658D01*
X0527384Y0470463D02*
X0522199Y0470463D01*
X0522199Y0470267D02*
X0527579Y0470267D01*
X0527774Y0470072D02*
X0522199Y0470072D01*
X0522199Y0469877D02*
X0527970Y0469877D01*
X0528165Y0469681D02*
X0522199Y0469681D01*
X0522199Y0469486D02*
X0528360Y0469486D01*
X0528556Y0469291D02*
X0522199Y0469291D01*
X0522199Y0469095D02*
X0528751Y0469095D01*
X0528947Y0468900D02*
X0522199Y0468900D01*
X0522199Y0468705D02*
X0529142Y0468705D01*
X0529337Y0468509D02*
X0522199Y0468509D01*
X0522199Y0468314D02*
X0529533Y0468314D01*
X0529728Y0468118D02*
X0522199Y0468118D01*
X0522199Y0467923D02*
X0529923Y0467923D01*
X0530119Y0467728D02*
X0522199Y0467728D01*
X0522199Y0467532D02*
X0530314Y0467532D01*
X0530509Y0467337D02*
X0522199Y0467337D01*
X0522199Y0467142D02*
X0530705Y0467142D01*
X0530900Y0466946D02*
X0522199Y0466946D01*
X0522199Y0466751D02*
X0531095Y0466751D01*
X0531291Y0466556D02*
X0522199Y0466556D01*
X0522199Y0466360D02*
X0531486Y0466360D01*
D17*
X0530388Y0484033D03*
X0368388Y0484033D03*
X0206388Y0484033D03*
X0044388Y0484033D03*
X0044388Y0322033D03*
X0206388Y0322033D03*
X0368388Y0322033D03*
X0530388Y0322033D03*
X0530388Y0160033D03*
X0368388Y0160033D03*
X0206388Y0160033D03*
X0044388Y0160033D03*
D18*
X0056750Y0230750D03*
X0060750Y0230750D03*
X0164750Y0220750D03*
X0168750Y0220750D03*
X0172750Y0220750D03*
X0171250Y0251250D03*
X0175250Y0251250D03*
X0218750Y0230750D03*
X0222750Y0230750D03*
X0326750Y0220750D03*
X0330750Y0220750D03*
X0334750Y0220750D03*
X0380750Y0230750D03*
X0384750Y0230750D03*
X0337250Y0251250D03*
X0333250Y0251250D03*
X0488750Y0220750D03*
X0492750Y0220750D03*
X0496750Y0220750D03*
X0495250Y0251250D03*
X0499250Y0251250D03*
X0542750Y0230750D03*
X0546750Y0230750D03*
X0650750Y0220750D03*
X0654750Y0220750D03*
X0658750Y0220750D03*
X0657250Y0251250D03*
X0661250Y0251250D03*
X0658750Y0382750D03*
X0654750Y0382750D03*
X0650750Y0382750D03*
X0657250Y0413250D03*
X0661250Y0413250D03*
X0546750Y0392750D03*
X0542750Y0392750D03*
X0499250Y0413250D03*
X0495250Y0413250D03*
X0496750Y0382750D03*
X0492750Y0382750D03*
X0488750Y0382750D03*
X0384750Y0392750D03*
X0380750Y0392750D03*
X0334750Y0382750D03*
X0330750Y0382750D03*
X0326750Y0382750D03*
X0333250Y0413250D03*
X0337250Y0413250D03*
X0222750Y0392750D03*
X0218750Y0392750D03*
X0172750Y0382750D03*
X0168750Y0382750D03*
X0164750Y0382750D03*
X0171250Y0413250D03*
X0175250Y0413250D03*
X0060750Y0392750D03*
X0056750Y0392750D03*
X0171250Y0089250D03*
X0175250Y0089250D03*
X0172750Y0058750D03*
X0168750Y0058750D03*
X0164750Y0058750D03*
X0218750Y0068750D03*
X0222750Y0068750D03*
X0326750Y0058750D03*
X0330750Y0058750D03*
X0334750Y0058750D03*
X0333250Y0089250D03*
X0337250Y0089250D03*
X0380750Y0068750D03*
X0384750Y0068750D03*
X0488750Y0058750D03*
X0492750Y0058750D03*
X0496750Y0058750D03*
X0495250Y0089250D03*
X0499250Y0089250D03*
X0542750Y0068750D03*
X0546750Y0068750D03*
X0650750Y0058750D03*
X0654750Y0058750D03*
X0658750Y0058750D03*
X0657250Y0089250D03*
X0661250Y0089250D03*
X0060750Y0068750D03*
X0056750Y0068750D03*
D19*
X0058000Y0068631D02*
X0059500Y0068631D01*
X0059500Y0068250D02*
X0058000Y0068250D01*
X0058000Y0069250D01*
X0059500Y0069250D01*
X0059500Y0068250D01*
X0059500Y0069129D02*
X0058000Y0069129D01*
X0166000Y0059250D02*
X0171500Y0059250D01*
X0171500Y0058250D01*
X0166000Y0058250D01*
X0166000Y0059250D01*
X0166000Y0059159D02*
X0171500Y0059159D01*
X0171500Y0058661D02*
X0166000Y0058661D01*
X0172500Y0088750D02*
X0172500Y0089750D01*
X0174000Y0089750D01*
X0174000Y0088750D01*
X0172500Y0088750D01*
X0172500Y0089070D02*
X0174000Y0089070D01*
X0174000Y0089568D02*
X0172500Y0089568D01*
X0220000Y0069250D02*
X0220000Y0068250D01*
X0221500Y0068250D01*
X0221500Y0069250D01*
X0220000Y0069250D01*
X0220000Y0069129D02*
X0221500Y0069129D01*
X0221500Y0068631D02*
X0220000Y0068631D01*
X0328000Y0059250D02*
X0333500Y0059250D01*
X0333500Y0058250D01*
X0328000Y0058250D01*
X0328000Y0059250D01*
X0328000Y0059159D02*
X0333500Y0059159D01*
X0333500Y0058661D02*
X0328000Y0058661D01*
X0334500Y0088750D02*
X0334500Y0089750D01*
X0336000Y0089750D01*
X0336000Y0088750D01*
X0334500Y0088750D01*
X0334500Y0089070D02*
X0336000Y0089070D01*
X0336000Y0089568D02*
X0334500Y0089568D01*
X0382000Y0069250D02*
X0382000Y0068250D01*
X0383500Y0068250D01*
X0383500Y0069250D01*
X0382000Y0069250D01*
X0382000Y0069129D02*
X0383500Y0069129D01*
X0383500Y0068631D02*
X0382000Y0068631D01*
X0490000Y0059250D02*
X0495500Y0059250D01*
X0495500Y0058250D01*
X0490000Y0058250D01*
X0490000Y0059250D01*
X0490000Y0059159D02*
X0495500Y0059159D01*
X0495500Y0058661D02*
X0490000Y0058661D01*
X0496500Y0088750D02*
X0496500Y0089750D01*
X0498000Y0089750D01*
X0498000Y0088750D01*
X0496500Y0088750D01*
X0496500Y0089070D02*
X0498000Y0089070D01*
X0498000Y0089568D02*
X0496500Y0089568D01*
X0544000Y0069250D02*
X0544000Y0068250D01*
X0545500Y0068250D01*
X0545500Y0069250D01*
X0544000Y0069250D01*
X0544000Y0069129D02*
X0545500Y0069129D01*
X0545500Y0068631D02*
X0544000Y0068631D01*
X0652000Y0059250D02*
X0657500Y0059250D01*
X0657500Y0058250D01*
X0652000Y0058250D01*
X0652000Y0059250D01*
X0652000Y0059159D02*
X0657500Y0059159D01*
X0657500Y0058661D02*
X0652000Y0058661D01*
X0658500Y0088750D02*
X0658500Y0089750D01*
X0660000Y0089750D01*
X0660000Y0088750D01*
X0658500Y0088750D01*
X0658500Y0089070D02*
X0660000Y0089070D01*
X0660000Y0089568D02*
X0658500Y0089568D01*
X0657500Y0220250D02*
X0652000Y0220250D01*
X0652000Y0221250D01*
X0657500Y0221250D01*
X0657500Y0220250D01*
X0657500Y0220677D02*
X0652000Y0220677D01*
X0652000Y0221175D02*
X0657500Y0221175D01*
X0658500Y0250750D02*
X0658500Y0251750D01*
X0660000Y0251750D01*
X0660000Y0250750D01*
X0658500Y0250750D01*
X0658500Y0251086D02*
X0660000Y0251086D01*
X0660000Y0251585D02*
X0658500Y0251585D01*
X0545500Y0231250D02*
X0545500Y0230250D01*
X0544000Y0230250D01*
X0544000Y0231250D01*
X0545500Y0231250D01*
X0545500Y0231146D02*
X0544000Y0231146D01*
X0544000Y0230647D02*
X0545500Y0230647D01*
X0498000Y0250750D02*
X0498000Y0251750D01*
X0496500Y0251750D01*
X0496500Y0250750D01*
X0498000Y0250750D01*
X0498000Y0251086D02*
X0496500Y0251086D01*
X0496500Y0251585D02*
X0498000Y0251585D01*
X0495500Y0221250D02*
X0490000Y0221250D01*
X0490000Y0220250D01*
X0495500Y0220250D01*
X0495500Y0221250D01*
X0495500Y0221175D02*
X0490000Y0221175D01*
X0490000Y0220677D02*
X0495500Y0220677D01*
X0383500Y0230250D02*
X0382000Y0230250D01*
X0382000Y0231250D01*
X0383500Y0231250D01*
X0383500Y0230250D01*
X0383500Y0230647D02*
X0382000Y0230647D01*
X0382000Y0231146D02*
X0383500Y0231146D01*
X0336000Y0250750D02*
X0336000Y0251750D01*
X0334500Y0251750D01*
X0334500Y0250750D01*
X0336000Y0250750D01*
X0336000Y0251086D02*
X0334500Y0251086D01*
X0334500Y0251585D02*
X0336000Y0251585D01*
X0333500Y0221250D02*
X0333500Y0220250D01*
X0328000Y0220250D01*
X0328000Y0221250D01*
X0333500Y0221250D01*
X0333500Y0221175D02*
X0328000Y0221175D01*
X0328000Y0220677D02*
X0333500Y0220677D01*
X0221500Y0230250D02*
X0220000Y0230250D01*
X0220000Y0231250D01*
X0221500Y0231250D01*
X0221500Y0230250D01*
X0221500Y0230647D02*
X0220000Y0230647D01*
X0220000Y0231146D02*
X0221500Y0231146D01*
X0171500Y0221250D02*
X0171500Y0220250D01*
X0166000Y0220250D01*
X0166000Y0221250D01*
X0171500Y0221250D01*
X0171500Y0221175D02*
X0166000Y0221175D01*
X0166000Y0220677D02*
X0171500Y0220677D01*
X0172500Y0250750D02*
X0172500Y0251750D01*
X0174000Y0251750D01*
X0174000Y0250750D01*
X0172500Y0250750D01*
X0172500Y0251086D02*
X0174000Y0251086D01*
X0174000Y0251585D02*
X0172500Y0251585D01*
X0059500Y0231250D02*
X0059500Y0230250D01*
X0058000Y0230250D01*
X0058000Y0231250D01*
X0059500Y0231250D01*
X0059500Y0231146D02*
X0058000Y0231146D01*
X0058000Y0230647D02*
X0059500Y0230647D01*
X0166000Y0382250D02*
X0166000Y0383250D01*
X0171500Y0383250D01*
X0171500Y0382250D01*
X0166000Y0382250D01*
X0166000Y0382693D02*
X0171500Y0382693D01*
X0171500Y0383192D02*
X0166000Y0383192D01*
X0172500Y0412750D02*
X0172500Y0413750D01*
X0174000Y0413750D01*
X0174000Y0412750D01*
X0172500Y0412750D01*
X0172500Y0413102D02*
X0174000Y0413102D01*
X0174000Y0413601D02*
X0172500Y0413601D01*
X0220000Y0393250D02*
X0220000Y0392250D01*
X0221500Y0392250D01*
X0221500Y0393250D01*
X0220000Y0393250D01*
X0220000Y0393162D02*
X0221500Y0393162D01*
X0221500Y0392663D02*
X0220000Y0392663D01*
X0328000Y0383250D02*
X0333500Y0383250D01*
X0333500Y0382250D01*
X0328000Y0382250D01*
X0328000Y0383250D01*
X0328000Y0383192D02*
X0333500Y0383192D01*
X0333500Y0382693D02*
X0328000Y0382693D01*
X0334500Y0412750D02*
X0334500Y0413750D01*
X0336000Y0413750D01*
X0336000Y0412750D01*
X0334500Y0412750D01*
X0334500Y0413102D02*
X0336000Y0413102D01*
X0336000Y0413601D02*
X0334500Y0413601D01*
X0382000Y0393250D02*
X0382000Y0392250D01*
X0383500Y0392250D01*
X0383500Y0393250D01*
X0382000Y0393250D01*
X0382000Y0393162D02*
X0383500Y0393162D01*
X0383500Y0392663D02*
X0382000Y0392663D01*
X0490000Y0383250D02*
X0495500Y0383250D01*
X0495500Y0382250D01*
X0490000Y0382250D01*
X0490000Y0383250D01*
X0490000Y0383192D02*
X0495500Y0383192D01*
X0495500Y0382693D02*
X0490000Y0382693D01*
X0496500Y0412750D02*
X0496500Y0413750D01*
X0498000Y0413750D01*
X0498000Y0412750D01*
X0496500Y0412750D01*
X0496500Y0413102D02*
X0498000Y0413102D01*
X0498000Y0413601D02*
X0496500Y0413601D01*
X0544000Y0393250D02*
X0544000Y0392250D01*
X0545500Y0392250D01*
X0545500Y0393250D01*
X0544000Y0393250D01*
X0544000Y0393162D02*
X0545500Y0393162D01*
X0545500Y0392663D02*
X0544000Y0392663D01*
X0652000Y0383250D02*
X0657500Y0383250D01*
X0657500Y0382250D01*
X0652000Y0382250D01*
X0652000Y0383250D01*
X0652000Y0383192D02*
X0657500Y0383192D01*
X0657500Y0382693D02*
X0652000Y0382693D01*
X0658500Y0412750D02*
X0658500Y0413750D01*
X0660000Y0413750D01*
X0660000Y0412750D01*
X0658500Y0412750D01*
X0658500Y0413102D02*
X0660000Y0413102D01*
X0660000Y0413601D02*
X0658500Y0413601D01*
X0059500Y0393250D02*
X0059500Y0392250D01*
X0058000Y0392250D01*
X0058000Y0393250D01*
X0059500Y0393250D01*
X0059500Y0393162D02*
X0058000Y0393162D01*
X0058000Y0392663D02*
X0059500Y0392663D01*
D20*
X0042623Y0390670D02*
X0039877Y0390670D01*
X0042623Y0390670D02*
X0042623Y0387924D01*
X0039877Y0387924D01*
X0039877Y0390670D01*
X0039877Y0389814D02*
X0042623Y0389814D01*
X0042623Y0397576D02*
X0039877Y0397576D01*
X0042623Y0397576D02*
X0042623Y0394830D01*
X0039877Y0394830D01*
X0039877Y0397576D01*
X0039877Y0396720D02*
X0042623Y0396720D01*
X0177170Y0455877D02*
X0177170Y0458623D01*
X0177170Y0455877D02*
X0174424Y0455877D01*
X0174424Y0458623D01*
X0177170Y0458623D01*
X0177170Y0457767D02*
X0174424Y0457767D01*
X0184076Y0458623D02*
X0184076Y0455877D01*
X0181330Y0455877D01*
X0181330Y0458623D01*
X0184076Y0458623D01*
X0184076Y0457767D02*
X0181330Y0457767D01*
X0201877Y0397576D02*
X0204623Y0397576D01*
X0204623Y0394830D01*
X0201877Y0394830D01*
X0201877Y0397576D01*
X0201877Y0396720D02*
X0204623Y0396720D01*
X0204623Y0390670D02*
X0201877Y0390670D01*
X0204623Y0390670D02*
X0204623Y0387924D01*
X0201877Y0387924D01*
X0201877Y0390670D01*
X0201877Y0389814D02*
X0204623Y0389814D01*
X0184076Y0296623D02*
X0184076Y0293877D01*
X0181330Y0293877D01*
X0181330Y0296623D01*
X0184076Y0296623D01*
X0184076Y0295767D02*
X0181330Y0295767D01*
X0177170Y0296623D02*
X0177170Y0293877D01*
X0174424Y0293877D01*
X0174424Y0296623D01*
X0177170Y0296623D01*
X0177170Y0295767D02*
X0174424Y0295767D01*
X0201877Y0235576D02*
X0204623Y0235576D01*
X0204623Y0232830D01*
X0201877Y0232830D01*
X0201877Y0235576D01*
X0201877Y0234720D02*
X0204623Y0234720D01*
X0204623Y0228670D02*
X0201877Y0228670D01*
X0204623Y0228670D02*
X0204623Y0225924D01*
X0201877Y0225924D01*
X0201877Y0228670D01*
X0201877Y0227814D02*
X0204623Y0227814D01*
X0184076Y0134623D02*
X0184076Y0131877D01*
X0181330Y0131877D01*
X0181330Y0134623D01*
X0184076Y0134623D01*
X0184076Y0133767D02*
X0181330Y0133767D01*
X0177170Y0134623D02*
X0177170Y0131877D01*
X0174424Y0131877D01*
X0174424Y0134623D01*
X0177170Y0134623D01*
X0177170Y0133767D02*
X0174424Y0133767D01*
X0201877Y0073576D02*
X0204623Y0073576D01*
X0204623Y0070830D01*
X0201877Y0070830D01*
X0201877Y0073576D01*
X0201877Y0072720D02*
X0204623Y0072720D01*
X0204623Y0066670D02*
X0201877Y0066670D01*
X0204623Y0066670D02*
X0204623Y0063924D01*
X0201877Y0063924D01*
X0201877Y0066670D01*
X0201877Y0065814D02*
X0204623Y0065814D01*
X0339170Y0131877D02*
X0339170Y0134623D01*
X0339170Y0131877D02*
X0336424Y0131877D01*
X0336424Y0134623D01*
X0339170Y0134623D01*
X0339170Y0133767D02*
X0336424Y0133767D01*
X0346076Y0134623D02*
X0346076Y0131877D01*
X0343330Y0131877D01*
X0343330Y0134623D01*
X0346076Y0134623D01*
X0346076Y0133767D02*
X0343330Y0133767D01*
X0363877Y0073576D02*
X0366623Y0073576D01*
X0366623Y0070830D01*
X0363877Y0070830D01*
X0363877Y0073576D01*
X0363877Y0072720D02*
X0366623Y0072720D01*
X0366623Y0066670D02*
X0363877Y0066670D01*
X0366623Y0066670D02*
X0366623Y0063924D01*
X0363877Y0063924D01*
X0363877Y0066670D01*
X0363877Y0065814D02*
X0366623Y0065814D01*
X0501170Y0131877D02*
X0501170Y0134623D01*
X0501170Y0131877D02*
X0498424Y0131877D01*
X0498424Y0134623D01*
X0501170Y0134623D01*
X0501170Y0133767D02*
X0498424Y0133767D01*
X0508076Y0134623D02*
X0508076Y0131877D01*
X0505330Y0131877D01*
X0505330Y0134623D01*
X0508076Y0134623D01*
X0508076Y0133767D02*
X0505330Y0133767D01*
X0525877Y0073576D02*
X0528623Y0073576D01*
X0528623Y0070830D01*
X0525877Y0070830D01*
X0525877Y0073576D01*
X0525877Y0072720D02*
X0528623Y0072720D01*
X0528623Y0066670D02*
X0525877Y0066670D01*
X0528623Y0066670D02*
X0528623Y0063924D01*
X0525877Y0063924D01*
X0525877Y0066670D01*
X0525877Y0065814D02*
X0528623Y0065814D01*
X0663170Y0131877D02*
X0663170Y0134623D01*
X0663170Y0131877D02*
X0660424Y0131877D01*
X0660424Y0134623D01*
X0663170Y0134623D01*
X0663170Y0133767D02*
X0660424Y0133767D01*
X0670076Y0134623D02*
X0670076Y0131877D01*
X0667330Y0131877D01*
X0667330Y0134623D01*
X0670076Y0134623D01*
X0670076Y0133767D02*
X0667330Y0133767D01*
X0528623Y0228670D02*
X0525877Y0228670D01*
X0528623Y0228670D02*
X0528623Y0225924D01*
X0525877Y0225924D01*
X0525877Y0228670D01*
X0525877Y0227814D02*
X0528623Y0227814D01*
X0528623Y0235576D02*
X0525877Y0235576D01*
X0528623Y0235576D02*
X0528623Y0232830D01*
X0525877Y0232830D01*
X0525877Y0235576D01*
X0525877Y0234720D02*
X0528623Y0234720D01*
X0508076Y0293877D02*
X0508076Y0296623D01*
X0508076Y0293877D02*
X0505330Y0293877D01*
X0505330Y0296623D01*
X0508076Y0296623D01*
X0508076Y0295767D02*
X0505330Y0295767D01*
X0501170Y0296623D02*
X0501170Y0293877D01*
X0498424Y0293877D01*
X0498424Y0296623D01*
X0501170Y0296623D01*
X0501170Y0295767D02*
X0498424Y0295767D01*
X0525877Y0390670D02*
X0528623Y0390670D01*
X0528623Y0387924D01*
X0525877Y0387924D01*
X0525877Y0390670D01*
X0525877Y0389814D02*
X0528623Y0389814D01*
X0528623Y0397576D02*
X0525877Y0397576D01*
X0528623Y0397576D02*
X0528623Y0394830D01*
X0525877Y0394830D01*
X0525877Y0397576D01*
X0525877Y0396720D02*
X0528623Y0396720D01*
X0508076Y0455877D02*
X0508076Y0458623D01*
X0508076Y0455877D02*
X0505330Y0455877D01*
X0505330Y0458623D01*
X0508076Y0458623D01*
X0508076Y0457767D02*
X0505330Y0457767D01*
X0501170Y0458623D02*
X0501170Y0455877D01*
X0498424Y0455877D01*
X0498424Y0458623D01*
X0501170Y0458623D01*
X0501170Y0457767D02*
X0498424Y0457767D01*
X0366623Y0397576D02*
X0363877Y0397576D01*
X0366623Y0397576D02*
X0366623Y0394830D01*
X0363877Y0394830D01*
X0363877Y0397576D01*
X0363877Y0396720D02*
X0366623Y0396720D01*
X0366623Y0390670D02*
X0363877Y0390670D01*
X0366623Y0390670D02*
X0366623Y0387924D01*
X0363877Y0387924D01*
X0363877Y0390670D01*
X0363877Y0389814D02*
X0366623Y0389814D01*
X0346076Y0455877D02*
X0346076Y0458623D01*
X0346076Y0455877D02*
X0343330Y0455877D01*
X0343330Y0458623D01*
X0346076Y0458623D01*
X0346076Y0457767D02*
X0343330Y0457767D01*
X0339170Y0458623D02*
X0339170Y0455877D01*
X0336424Y0455877D01*
X0336424Y0458623D01*
X0339170Y0458623D01*
X0339170Y0457767D02*
X0336424Y0457767D01*
X0339170Y0296623D02*
X0339170Y0293877D01*
X0336424Y0293877D01*
X0336424Y0296623D01*
X0339170Y0296623D01*
X0339170Y0295767D02*
X0336424Y0295767D01*
X0346076Y0296623D02*
X0346076Y0293877D01*
X0343330Y0293877D01*
X0343330Y0296623D01*
X0346076Y0296623D01*
X0346076Y0295767D02*
X0343330Y0295767D01*
X0363877Y0235576D02*
X0366623Y0235576D01*
X0366623Y0232830D01*
X0363877Y0232830D01*
X0363877Y0235576D01*
X0363877Y0234720D02*
X0366623Y0234720D01*
X0366623Y0228670D02*
X0363877Y0228670D01*
X0366623Y0228670D02*
X0366623Y0225924D01*
X0363877Y0225924D01*
X0363877Y0228670D01*
X0363877Y0227814D02*
X0366623Y0227814D01*
X0663170Y0293877D02*
X0663170Y0296623D01*
X0663170Y0293877D02*
X0660424Y0293877D01*
X0660424Y0296623D01*
X0663170Y0296623D01*
X0663170Y0295767D02*
X0660424Y0295767D01*
X0670076Y0296623D02*
X0670076Y0293877D01*
X0667330Y0293877D01*
X0667330Y0296623D01*
X0670076Y0296623D01*
X0670076Y0295767D02*
X0667330Y0295767D01*
X0670076Y0455877D02*
X0670076Y0458623D01*
X0670076Y0455877D02*
X0667330Y0455877D01*
X0667330Y0458623D01*
X0670076Y0458623D01*
X0670076Y0457767D02*
X0667330Y0457767D01*
X0663170Y0458623D02*
X0663170Y0455877D01*
X0660424Y0455877D01*
X0660424Y0458623D01*
X0663170Y0458623D01*
X0663170Y0457767D02*
X0660424Y0457767D01*
X0042623Y0235576D02*
X0039877Y0235576D01*
X0042623Y0235576D02*
X0042623Y0232830D01*
X0039877Y0232830D01*
X0039877Y0235576D01*
X0039877Y0234720D02*
X0042623Y0234720D01*
X0042623Y0228670D02*
X0039877Y0228670D01*
X0042623Y0228670D02*
X0042623Y0225924D01*
X0039877Y0225924D01*
X0039877Y0228670D01*
X0039877Y0227814D02*
X0042623Y0227814D01*
X0042623Y0073576D02*
X0039877Y0073576D01*
X0042623Y0073576D02*
X0042623Y0070830D01*
X0039877Y0070830D01*
X0039877Y0073576D01*
X0039877Y0072720D02*
X0042623Y0072720D01*
X0042623Y0066670D02*
X0039877Y0066670D01*
X0042623Y0066670D02*
X0042623Y0063924D01*
X0039877Y0063924D01*
X0039877Y0066670D01*
X0039877Y0065814D02*
X0042623Y0065814D01*
D21*
X0068750Y0174222D03*
X0068750Y0183278D03*
X0230750Y0183278D03*
X0230750Y0174222D03*
X0392750Y0174222D03*
X0392750Y0183278D03*
X0554750Y0183278D03*
X0554750Y0174222D03*
X0554750Y0336222D03*
X0554750Y0345278D03*
X0392750Y0345278D03*
X0392750Y0336222D03*
X0230750Y0336222D03*
X0230750Y0345278D03*
X0068750Y0345278D03*
X0068750Y0336222D03*
X0068750Y0498222D03*
X0068750Y0507278D03*
X0230750Y0507278D03*
X0230750Y0498222D03*
X0392750Y0498222D03*
X0392750Y0507278D03*
X0554750Y0507278D03*
X0554750Y0498222D03*
D22*
X0566699Y0447711D03*
X0566699Y0440230D03*
X0566699Y0432750D03*
X0566699Y0425270D03*
X0566699Y0417789D03*
X0622801Y0417789D03*
X0622801Y0425270D03*
X0622801Y0432750D03*
X0622801Y0440230D03*
X0622801Y0447711D03*
X0460801Y0447711D03*
X0460801Y0440230D03*
X0460801Y0432750D03*
X0460801Y0425270D03*
X0460801Y0417789D03*
X0404699Y0417789D03*
X0404699Y0425270D03*
X0404699Y0432750D03*
X0404699Y0440230D03*
X0404699Y0447711D03*
X0298801Y0447711D03*
X0298801Y0440230D03*
X0298801Y0432750D03*
X0298801Y0425270D03*
X0298801Y0417789D03*
X0242699Y0417789D03*
X0242699Y0425270D03*
X0242699Y0432750D03*
X0242699Y0440230D03*
X0242699Y0447711D03*
X0136801Y0447711D03*
X0136801Y0440230D03*
X0136801Y0432750D03*
X0136801Y0425270D03*
X0136801Y0417789D03*
X0080699Y0417789D03*
X0080699Y0425270D03*
X0080699Y0432750D03*
X0080699Y0440230D03*
X0080699Y0447711D03*
X0080699Y0285711D03*
X0080699Y0278230D03*
X0080699Y0270750D03*
X0080699Y0263270D03*
X0080699Y0255789D03*
X0136801Y0255789D03*
X0136801Y0263270D03*
X0136801Y0270750D03*
X0136801Y0278230D03*
X0136801Y0285711D03*
X0242699Y0285711D03*
X0242699Y0278230D03*
X0242699Y0270750D03*
X0242699Y0263270D03*
X0242699Y0255789D03*
X0298801Y0255789D03*
X0298801Y0263270D03*
X0298801Y0270750D03*
X0298801Y0278230D03*
X0298801Y0285711D03*
X0404699Y0285711D03*
X0404699Y0278230D03*
X0404699Y0270750D03*
X0404699Y0263270D03*
X0404699Y0255789D03*
X0460801Y0255789D03*
X0460801Y0263270D03*
X0460801Y0270750D03*
X0460801Y0278230D03*
X0460801Y0285711D03*
X0566699Y0285711D03*
X0566699Y0278230D03*
X0566699Y0270750D03*
X0566699Y0263270D03*
X0566699Y0255789D03*
X0622801Y0255789D03*
X0622801Y0263270D03*
X0622801Y0270750D03*
X0622801Y0278230D03*
X0622801Y0285711D03*
X0622801Y0123711D03*
X0622801Y0116230D03*
X0622801Y0108750D03*
X0622801Y0101270D03*
X0622801Y0093789D03*
X0566699Y0093789D03*
X0566699Y0101270D03*
X0566699Y0108750D03*
X0566699Y0116230D03*
X0566699Y0123711D03*
X0460801Y0123711D03*
X0460801Y0116230D03*
X0460801Y0108750D03*
X0460801Y0101270D03*
X0460801Y0093789D03*
X0404699Y0093789D03*
X0404699Y0101270D03*
X0404699Y0108750D03*
X0404699Y0116230D03*
X0404699Y0123711D03*
X0298801Y0123711D03*
X0298801Y0116230D03*
X0298801Y0108750D03*
X0298801Y0101270D03*
X0298801Y0093789D03*
X0242699Y0093789D03*
X0242699Y0101270D03*
X0242699Y0108750D03*
X0242699Y0116230D03*
X0242699Y0123711D03*
X0136801Y0123711D03*
X0136801Y0116230D03*
X0136801Y0108750D03*
X0136801Y0101270D03*
X0136801Y0093789D03*
X0080699Y0093789D03*
X0080699Y0101270D03*
X0080699Y0108750D03*
X0080699Y0116230D03*
X0080699Y0123711D03*
D23*
X0093789Y0136801D03*
X0101270Y0136801D03*
X0108750Y0136801D03*
X0116230Y0136801D03*
X0123711Y0136801D03*
X0123711Y0080699D03*
X0116230Y0080699D03*
X0108750Y0080699D03*
X0101270Y0080699D03*
X0093789Y0080699D03*
X0255789Y0080699D03*
X0263270Y0080699D03*
X0270750Y0080699D03*
X0278230Y0080699D03*
X0285711Y0080699D03*
X0285711Y0136801D03*
X0278230Y0136801D03*
X0270750Y0136801D03*
X0263270Y0136801D03*
X0255789Y0136801D03*
X0255789Y0242699D03*
X0263270Y0242699D03*
X0270750Y0242699D03*
X0278230Y0242699D03*
X0285711Y0242699D03*
X0285711Y0298801D03*
X0278230Y0298801D03*
X0270750Y0298801D03*
X0263270Y0298801D03*
X0255789Y0298801D03*
X0123711Y0298801D03*
X0116230Y0298801D03*
X0108750Y0298801D03*
X0101270Y0298801D03*
X0093789Y0298801D03*
X0093789Y0242699D03*
X0101270Y0242699D03*
X0108750Y0242699D03*
X0116230Y0242699D03*
X0123711Y0242699D03*
X0123711Y0404699D03*
X0116230Y0404699D03*
X0108750Y0404699D03*
X0101270Y0404699D03*
X0093789Y0404699D03*
X0093789Y0460801D03*
X0101270Y0460801D03*
X0108750Y0460801D03*
X0116230Y0460801D03*
X0123711Y0460801D03*
X0255789Y0460801D03*
X0263270Y0460801D03*
X0270750Y0460801D03*
X0278230Y0460801D03*
X0285711Y0460801D03*
X0285711Y0404699D03*
X0278230Y0404699D03*
X0270750Y0404699D03*
X0263270Y0404699D03*
X0255789Y0404699D03*
X0417789Y0404699D03*
X0425270Y0404699D03*
X0432750Y0404699D03*
X0440230Y0404699D03*
X0447711Y0404699D03*
X0447711Y0460801D03*
X0440230Y0460801D03*
X0432750Y0460801D03*
X0425270Y0460801D03*
X0417789Y0460801D03*
X0579789Y0460801D03*
X0587270Y0460801D03*
X0594750Y0460801D03*
X0602230Y0460801D03*
X0609711Y0460801D03*
X0609711Y0404699D03*
X0602230Y0404699D03*
X0594750Y0404699D03*
X0587270Y0404699D03*
X0579789Y0404699D03*
X0579789Y0298801D03*
X0587270Y0298801D03*
X0594750Y0298801D03*
X0602230Y0298801D03*
X0609711Y0298801D03*
X0609711Y0242699D03*
X0602230Y0242699D03*
X0594750Y0242699D03*
X0587270Y0242699D03*
X0579789Y0242699D03*
X0447711Y0242699D03*
X0440230Y0242699D03*
X0432750Y0242699D03*
X0425270Y0242699D03*
X0417789Y0242699D03*
X0417789Y0298801D03*
X0425270Y0298801D03*
X0432750Y0298801D03*
X0440230Y0298801D03*
X0447711Y0298801D03*
X0447711Y0136801D03*
X0440230Y0136801D03*
X0432750Y0136801D03*
X0425270Y0136801D03*
X0417789Y0136801D03*
X0417789Y0080699D03*
X0425270Y0080699D03*
X0432750Y0080699D03*
X0440230Y0080699D03*
X0447711Y0080699D03*
X0579789Y0080699D03*
X0587270Y0080699D03*
X0594750Y0080699D03*
X0602230Y0080699D03*
X0609711Y0080699D03*
X0609711Y0136801D03*
X0602230Y0136801D03*
X0594750Y0136801D03*
X0587270Y0136801D03*
X0579789Y0136801D03*
D24*
X0579750Y0183750D03*
X0569750Y0183750D03*
X0569750Y0195750D03*
X0579750Y0195750D03*
X0589750Y0195750D03*
X0599750Y0195750D03*
X0609750Y0195750D03*
X0619750Y0195750D03*
X0629750Y0195750D03*
X0619750Y0183750D03*
X0609750Y0183750D03*
X0599750Y0183750D03*
X0589750Y0183750D03*
X0559750Y0195750D03*
X0467750Y0195750D03*
X0457750Y0195750D03*
X0447750Y0195750D03*
X0437750Y0195750D03*
X0427750Y0195750D03*
X0417750Y0195750D03*
X0407750Y0195750D03*
X0397750Y0195750D03*
X0407750Y0183750D03*
X0417750Y0183750D03*
X0427750Y0183750D03*
X0437750Y0183750D03*
X0447750Y0183750D03*
X0457750Y0183750D03*
X0305750Y0195750D03*
X0295750Y0195750D03*
X0285750Y0195750D03*
X0275750Y0195750D03*
X0265750Y0195750D03*
X0255750Y0195750D03*
X0245750Y0195750D03*
X0235750Y0195750D03*
X0245750Y0183750D03*
X0255750Y0183750D03*
X0265750Y0183750D03*
X0275750Y0183750D03*
X0285750Y0183750D03*
X0295750Y0183750D03*
X0143750Y0195750D03*
X0133750Y0195750D03*
X0123750Y0195750D03*
X0113750Y0195750D03*
X0103750Y0195750D03*
X0093750Y0195750D03*
X0083750Y0195750D03*
X0073750Y0195750D03*
X0083750Y0183750D03*
X0093750Y0183750D03*
X0103750Y0183750D03*
X0113750Y0183750D03*
X0123750Y0183750D03*
X0133750Y0183750D03*
X0133750Y0033750D03*
X0143750Y0033750D03*
X0123750Y0033750D03*
X0113750Y0033750D03*
X0103750Y0033750D03*
X0093750Y0033750D03*
X0083750Y0033750D03*
X0073750Y0033750D03*
X0235750Y0033750D03*
X0245750Y0033750D03*
X0255750Y0033750D03*
X0265750Y0033750D03*
X0275750Y0033750D03*
X0285750Y0033750D03*
X0295750Y0033750D03*
X0305750Y0033750D03*
X0397750Y0033750D03*
X0407750Y0033750D03*
X0417750Y0033750D03*
X0427750Y0033750D03*
X0437750Y0033750D03*
X0447750Y0033750D03*
X0457750Y0033750D03*
X0467750Y0033750D03*
X0559750Y0033750D03*
X0569750Y0033750D03*
X0579750Y0033750D03*
X0589750Y0033750D03*
X0599750Y0033750D03*
X0609750Y0033750D03*
X0619750Y0033750D03*
X0629750Y0033750D03*
X0619750Y0345750D03*
X0609750Y0345750D03*
X0599750Y0345750D03*
X0589750Y0345750D03*
X0579750Y0345750D03*
X0569750Y0345750D03*
X0569750Y0357750D03*
X0579750Y0357750D03*
X0589750Y0357750D03*
X0599750Y0357750D03*
X0609750Y0357750D03*
X0619750Y0357750D03*
X0629750Y0357750D03*
X0559750Y0357750D03*
X0467750Y0357750D03*
X0457750Y0357750D03*
X0447750Y0357750D03*
X0437750Y0357750D03*
X0427750Y0357750D03*
X0417750Y0357750D03*
X0407750Y0357750D03*
X0397750Y0357750D03*
X0407750Y0345750D03*
X0417750Y0345750D03*
X0427750Y0345750D03*
X0437750Y0345750D03*
X0447750Y0345750D03*
X0457750Y0345750D03*
X0305750Y0357750D03*
X0295750Y0357750D03*
X0285750Y0357750D03*
X0275750Y0357750D03*
X0265750Y0357750D03*
X0255750Y0357750D03*
X0245750Y0357750D03*
X0235750Y0357750D03*
X0245750Y0345750D03*
X0255750Y0345750D03*
X0265750Y0345750D03*
X0275750Y0345750D03*
X0285750Y0345750D03*
X0295750Y0345750D03*
X0143750Y0357750D03*
X0133750Y0357750D03*
X0123750Y0357750D03*
X0113750Y0357750D03*
X0103750Y0357750D03*
X0093750Y0357750D03*
X0083750Y0357750D03*
X0073750Y0357750D03*
X0083750Y0345750D03*
X0093750Y0345750D03*
X0103750Y0345750D03*
X0113750Y0345750D03*
X0123750Y0345750D03*
X0133750Y0345750D03*
X0133750Y0507750D03*
X0123750Y0507750D03*
X0113750Y0507750D03*
X0103750Y0507750D03*
X0093750Y0507750D03*
X0083750Y0507750D03*
X0245750Y0507750D03*
X0255750Y0507750D03*
X0265750Y0507750D03*
X0275750Y0507750D03*
X0285750Y0507750D03*
X0295750Y0507750D03*
X0407750Y0507750D03*
X0417750Y0507750D03*
X0427750Y0507750D03*
X0437750Y0507750D03*
X0447750Y0507750D03*
X0457750Y0507750D03*
X0569750Y0507750D03*
X0579750Y0507750D03*
X0589750Y0507750D03*
X0599750Y0507750D03*
X0609750Y0507750D03*
X0619750Y0507750D03*
D25*
X0647750Y0521000D03*
X0055750Y0521000D03*
D26*
X0052185Y0020500D02*
X0052187Y0020619D01*
X0052193Y0020738D01*
X0052203Y0020857D01*
X0052217Y0020975D01*
X0052235Y0021093D01*
X0052256Y0021210D01*
X0052282Y0021326D01*
X0052312Y0021442D01*
X0052345Y0021556D01*
X0052382Y0021669D01*
X0052423Y0021781D01*
X0052468Y0021892D01*
X0052516Y0022001D01*
X0052568Y0022108D01*
X0052624Y0022213D01*
X0052683Y0022317D01*
X0052745Y0022418D01*
X0052811Y0022518D01*
X0052880Y0022615D01*
X0052952Y0022709D01*
X0053028Y0022802D01*
X0053106Y0022891D01*
X0053187Y0022978D01*
X0053272Y0023063D01*
X0053359Y0023144D01*
X0053448Y0023222D01*
X0053541Y0023298D01*
X0053635Y0023370D01*
X0053732Y0023439D01*
X0053832Y0023505D01*
X0053933Y0023567D01*
X0054037Y0023626D01*
X0054142Y0023682D01*
X0054249Y0023734D01*
X0054358Y0023782D01*
X0054469Y0023827D01*
X0054581Y0023868D01*
X0054694Y0023905D01*
X0054808Y0023938D01*
X0054924Y0023968D01*
X0055040Y0023994D01*
X0055157Y0024015D01*
X0055275Y0024033D01*
X0055393Y0024047D01*
X0055512Y0024057D01*
X0055631Y0024063D01*
X0055750Y0024065D01*
X0055869Y0024063D01*
X0055988Y0024057D01*
X0056107Y0024047D01*
X0056225Y0024033D01*
X0056343Y0024015D01*
X0056460Y0023994D01*
X0056576Y0023968D01*
X0056692Y0023938D01*
X0056806Y0023905D01*
X0056919Y0023868D01*
X0057031Y0023827D01*
X0057142Y0023782D01*
X0057251Y0023734D01*
X0057358Y0023682D01*
X0057463Y0023626D01*
X0057567Y0023567D01*
X0057668Y0023505D01*
X0057768Y0023439D01*
X0057865Y0023370D01*
X0057959Y0023298D01*
X0058052Y0023222D01*
X0058141Y0023144D01*
X0058228Y0023063D01*
X0058313Y0022978D01*
X0058394Y0022891D01*
X0058472Y0022802D01*
X0058548Y0022709D01*
X0058620Y0022615D01*
X0058689Y0022518D01*
X0058755Y0022418D01*
X0058817Y0022317D01*
X0058876Y0022213D01*
X0058932Y0022108D01*
X0058984Y0022001D01*
X0059032Y0021892D01*
X0059077Y0021781D01*
X0059118Y0021669D01*
X0059155Y0021556D01*
X0059188Y0021442D01*
X0059218Y0021326D01*
X0059244Y0021210D01*
X0059265Y0021093D01*
X0059283Y0020975D01*
X0059297Y0020857D01*
X0059307Y0020738D01*
X0059313Y0020619D01*
X0059315Y0020500D01*
X0059313Y0020381D01*
X0059307Y0020262D01*
X0059297Y0020143D01*
X0059283Y0020025D01*
X0059265Y0019907D01*
X0059244Y0019790D01*
X0059218Y0019674D01*
X0059188Y0019558D01*
X0059155Y0019444D01*
X0059118Y0019331D01*
X0059077Y0019219D01*
X0059032Y0019108D01*
X0058984Y0018999D01*
X0058932Y0018892D01*
X0058876Y0018787D01*
X0058817Y0018683D01*
X0058755Y0018582D01*
X0058689Y0018482D01*
X0058620Y0018385D01*
X0058548Y0018291D01*
X0058472Y0018198D01*
X0058394Y0018109D01*
X0058313Y0018022D01*
X0058228Y0017937D01*
X0058141Y0017856D01*
X0058052Y0017778D01*
X0057959Y0017702D01*
X0057865Y0017630D01*
X0057768Y0017561D01*
X0057668Y0017495D01*
X0057567Y0017433D01*
X0057463Y0017374D01*
X0057358Y0017318D01*
X0057251Y0017266D01*
X0057142Y0017218D01*
X0057031Y0017173D01*
X0056919Y0017132D01*
X0056806Y0017095D01*
X0056692Y0017062D01*
X0056576Y0017032D01*
X0056460Y0017006D01*
X0056343Y0016985D01*
X0056225Y0016967D01*
X0056107Y0016953D01*
X0055988Y0016943D01*
X0055869Y0016937D01*
X0055750Y0016935D01*
X0055631Y0016937D01*
X0055512Y0016943D01*
X0055393Y0016953D01*
X0055275Y0016967D01*
X0055157Y0016985D01*
X0055040Y0017006D01*
X0054924Y0017032D01*
X0054808Y0017062D01*
X0054694Y0017095D01*
X0054581Y0017132D01*
X0054469Y0017173D01*
X0054358Y0017218D01*
X0054249Y0017266D01*
X0054142Y0017318D01*
X0054037Y0017374D01*
X0053933Y0017433D01*
X0053832Y0017495D01*
X0053732Y0017561D01*
X0053635Y0017630D01*
X0053541Y0017702D01*
X0053448Y0017778D01*
X0053359Y0017856D01*
X0053272Y0017937D01*
X0053187Y0018022D01*
X0053106Y0018109D01*
X0053028Y0018198D01*
X0052952Y0018291D01*
X0052880Y0018385D01*
X0052811Y0018482D01*
X0052745Y0018582D01*
X0052683Y0018683D01*
X0052624Y0018787D01*
X0052568Y0018892D01*
X0052516Y0018999D01*
X0052468Y0019108D01*
X0052423Y0019219D01*
X0052382Y0019331D01*
X0052345Y0019444D01*
X0052312Y0019558D01*
X0052282Y0019674D01*
X0052256Y0019790D01*
X0052235Y0019907D01*
X0052217Y0020025D01*
X0052203Y0020143D01*
X0052193Y0020262D01*
X0052187Y0020381D01*
X0052185Y0020500D01*
D27*
X0055750Y0020500D03*
M02*
